<?xml version="1.0" encoding="UTF-8"?>
<!DOCTYPE svg PUBLIC "-//W3C//DTD SVG 1.1//EN" "http://www.w3.org/Graphics/SVG/1.1/DTD/svg11.dtd">
<svg xmlns="http://www.w3.org/2000/svg" style="background: transparent; background-color: transparent; color-scheme: light dark;" xmlns:xlink="http://www.w3.org/1999/xlink" version="1.1" width="811px" height="612px" viewBox="-0.5 -0.5 811 612"><defs><clipPath id="mx-clip-5-151-381-29-0"><rect x="5" y="151" width="381" height="29"/></clipPath><clipPath id="mx-clip-5-188-381-29-0"><rect x="5" y="188" width="381" height="29"/></clipPath><clipPath id="mx-clip-5-217-381-29-0"><rect x="5" y="217" width="381" height="29"/></clipPath><clipPath id="mx-clip-5-246-381-29-0"><rect x="5" y="246" width="381" height="29"/></clipPath><clipPath id="mx-clip-5-275-381-29-0"><rect x="5" y="275" width="381" height="29"/></clipPath><clipPath id="mx-clip-5-304-381-29-0"><rect x="5" y="304" width="381" height="29"/></clipPath><clipPath id="mx-clip-5-333-381-29-0"><rect x="5" y="333" width="381" height="29"/></clipPath><clipPath id="mx-clip-5-362-381-29-0"><rect x="5" y="362" width="381" height="29"/></clipPath><clipPath id="mx-clip-5-391-381-29-0"><rect x="5" y="391" width="381" height="29"/></clipPath><clipPath id="mx-clip-5-420-381-29-0"><rect x="5" y="420" width="381" height="29"/></clipPath><clipPath id="mx-clip-5-449-381-29-0"><rect x="5" y="449" width="381" height="29"/></clipPath><clipPath id="mx-clip-632-61-135-37-0"><rect x="632" y="61" width="135" height="37"/></clipPath><clipPath id="mx-clip-632-98-135-37-0"><rect x="632" y="98" width="135" height="37"/></clipPath><clipPath id="mx-clip-632-135-135-37-0"><rect x="632" y="135" width="135" height="37"/></clipPath><clipPath id="mx-clip-594-458-211-35-0"><rect x="594" y="458" width="211" height="35"/></clipPath><clipPath id="mx-clip-594-493-211-35-0"><rect x="594" y="493" width="211" height="35"/></clipPath><clipPath id="mx-clip-594-528-211-35-0"><rect x="594" y="528" width="211" height="35"/></clipPath><clipPath id="mx-clip-594-563-211-35-0"><rect x="594" y="563" width="211" height="35"/></clipPath></defs><g><g data-cell-id="0"><g data-cell-id="1"><g data-cell-id="xggSwS1l_uX2BKRk23sH-93"><g><path d="M 390 146.33 L 390 130.2 Q 390 117 376.8 117 L 14.2 117 Q 1 117 1 130.2 L 1 146.33" fill="none" stroke="#000000" stroke-width="3" stroke-miterlimit="10" pointer-events="all" style="stroke: light-dark(rgb(0, 0, 0), rgb(255, 255, 255));"/><path d="M 1 146.33 L 1 460.13 Q 1 473.33 14.2 473.33 L 376.8 473.33 Q 390 473.33 390 460.13 L 390 146.33" fill="none" stroke="#000000" stroke-width="3" stroke-miterlimit="10" pointer-events="none" style="stroke: light-dark(rgb(0, 0, 0), rgb(255, 255, 255));"/><path d="M 1 146.33 L 390 146.33" fill="none" stroke="#000000" stroke-width="3" stroke-miterlimit="10" pointer-events="none" style="stroke: light-dark(rgb(0, 0, 0), rgb(255, 255, 255));"/></g><g><g fill="#000000" font-family="Helvetica" font-weight="bold" text-anchor="middle" font-size="12px" style="fill: light-dark(rgb(0, 0, 0), rgb(255, 255, 255));"><text x="195.5" y="135">RepositoryDB</text></g></g><g data-cell-id="xggSwS1l_uX2BKRk23sH-94"><g><rect x="1" y="146.33" width="389" height="29" fill="none" stroke="none" pointer-events="all"/></g><g><g fill="#000000" font-family="Helvetica" font-size="12px" clip-path="url(#mx-clip-5-151-381-29-0)" style="fill: light-dark(rgb(0, 0, 0), rgb(255, 255, 255));"><text x="7" y="164.33">-db_path: str</text></g></g></g><g data-cell-id="xggSwS1l_uX2BKRk23sH-95"><g><path d="M 1 179.33 L 390 179.33" fill="none" stroke="#000000" stroke-miterlimit="10" pointer-events="all" style="stroke: light-dark(rgb(0, 0, 0), rgb(255, 255, 255));"/></g></g><g data-cell-id="xggSwS1l_uX2BKRk23sH-96"><g><rect x="1" y="183.33" width="389" height="29" fill="none" stroke="none" pointer-events="all"/></g><g><g fill="#000000" font-family="Helvetica" font-size="12px" clip-path="url(#mx-clip-5-188-381-29-0)" style="fill: light-dark(rgb(0, 0, 0), rgb(255, 255, 255));"><text x="7" y="201.33">+__init__(db_name: str)</text></g></g></g><g data-cell-id="xggSwS1l_uX2BKRk23sH-97"><g><rect x="1" y="212.33" width="389" height="29" fill="none" stroke="none" pointer-events="all"/></g><g><g fill="#000000" font-family="Helvetica" font-size="12px" clip-path="url(#mx-clip-5-217-381-29-0)" style="fill: light-dark(rgb(0, 0, 0), rgb(255, 255, 255));"><text x="7" y="230.33">+task_format_list(rows_list: list) : list&lt;Task&gt;</text></g></g></g><g data-cell-id="xggSwS1l_uX2BKRk23sH-98"><g><rect x="1" y="241.33" width="389" height="29" fill="none" stroke="none" pointer-events="all"/></g><g><g fill="#000000" font-family="Helvetica" font-size="12px" clip-path="url(#mx-clip-5-246-381-29-0)" style="fill: light-dark(rgb(0, 0, 0), rgb(255, 255, 255));"><text x="7" y="259.33">+create_table()</text></g></g></g><g data-cell-id="xggSwS1l_uX2BKRk23sH-99"><g><rect x="1" y="270.33" width="389" height="29" fill="none" stroke="none" pointer-events="all"/></g><g><g fill="#000000" font-family="Helvetica" font-size="12px" clip-path="url(#mx-clip-5-275-381-29-0)" style="fill: light-dark(rgb(0, 0, 0), rgb(255, 255, 255));"><text x="7" y="288.33">+get_all_tasks() : list&lt;Task&gt;</text></g></g></g><g data-cell-id="xggSwS1l_uX2BKRk23sH-100"><g><rect x="1" y="299.33" width="389" height="29" fill="none" stroke="none" pointer-events="all"/></g><g><g fill="#000000" font-family="Helvetica" font-size="12px" clip-path="url(#mx-clip-5-304-381-29-0)" style="fill: light-dark(rgb(0, 0, 0), rgb(255, 255, 255));"><text x="7" y="317.33">+new_task(task_instance: Task) : int</text></g></g></g><g data-cell-id="xggSwS1l_uX2BKRk23sH-101"><g><rect x="1" y="328.33" width="389" height="29" fill="none" stroke="none" pointer-events="all"/></g><g><g fill="#000000" font-family="Helvetica" font-size="12px" clip-path="url(#mx-clip-5-333-381-29-0)" style="fill: light-dark(rgb(0, 0, 0), rgb(255, 255, 255));"><text x="7" y="346.33">+filter_tasks(status, tag, priority) : list&lt;Task&gt;</text></g></g></g><g data-cell-id="xggSwS1l_uX2BKRk23sH-102"><g><rect x="1" y="357.33" width="389" height="29" fill="none" stroke="none" pointer-events="all"/></g><g><g fill="#000000" font-family="Helvetica" font-size="12px" clip-path="url(#mx-clip-5-362-381-29-0)" style="fill: light-dark(rgb(0, 0, 0), rgb(255, 255, 255));"><text x="7" y="375.33">+update_task(task_id: int, new_data: dict)</text></g></g></g><g data-cell-id="xggSwS1l_uX2BKRk23sH-103"><g><rect x="1" y="386.33" width="389" height="29" fill="none" stroke="none" pointer-events="all"/></g><g><g fill="#000000" font-family="Helvetica" font-size="12px" clip-path="url(#mx-clip-5-391-381-29-0)" style="fill: light-dark(rgb(0, 0, 0), rgb(255, 255, 255));"><text x="7" y="404.33">+check_or_uncheck_task(id_task: int)</text></g></g></g><g data-cell-id="xggSwS1l_uX2BKRk23sH-104"><g><rect x="1" y="415.33" width="389" height="29" fill="none" stroke="none" pointer-events="all"/></g><g><g fill="#000000" font-family="Helvetica" font-size="12px" clip-path="url(#mx-clip-5-420-381-29-0)" style="fill: light-dark(rgb(0, 0, 0), rgb(255, 255, 255));"><text x="7" y="433.33">+get_task_by_id(id_task: int) : Task</text></g></g></g><g data-cell-id="xggSwS1l_uX2BKRk23sH-105"><g><rect x="1" y="444.33" width="389" height="29" fill="none" stroke="none" pointer-events="all"/></g><g><g fill="#000000" font-family="Helvetica" font-size="12px" clip-path="url(#mx-clip-5-449-381-29-0)" style="fill: light-dark(rgb(0, 0, 0), rgb(255, 255, 255));"><text x="7" y="462.33">+delete_task(id_task: int)</text></g></g></g></g><g data-cell-id="xggSwS1l_uX2BKRk23sH-106"><g><path d="M 771 56.2 L 771 25.84 Q 771 1 746.16 1 L 652.84 1 Q 628 1 628 25.84 L 628 56.2" fill="none" stroke="#000000" stroke-width="3" stroke-miterlimit="10" pointer-events="all" style="stroke: light-dark(rgb(0, 0, 0), rgb(255, 255, 255));"/><path d="M 628 56.2 L 628 160.36 Q 628 185.2 652.84 185.2 L 746.16 185.2 Q 771 185.2 771 160.36 L 771 56.2" fill="none" stroke="#000000" stroke-width="3" stroke-miterlimit="10" pointer-events="none" style="stroke: light-dark(rgb(0, 0, 0), rgb(255, 255, 255));"/><path d="M 628 56.2 L 771 56.2" fill="none" stroke="#000000" stroke-width="3" stroke-miterlimit="10" pointer-events="none" style="stroke: light-dark(rgb(0, 0, 0), rgb(255, 255, 255));"/></g><g><g fill="#000000" font-family="Helvetica" font-weight="bold" text-anchor="middle" font-size="12px" style="fill: light-dark(rgb(0, 0, 0), rgb(255, 255, 255));"><text x="699.5" y="19">&lt;&lt;Model&gt;&gt;</text><text x="699.5" y="33">Task</text></g></g><g data-cell-id="xggSwS1l_uX2BKRk23sH-107"><g><rect x="628" y="56.2" width="143" height="37" fill="none" stroke="none" pointer-events="all"/></g><g><g fill="#000000" font-family="Helvetica" font-size="12px" clip-path="url(#mx-clip-632-61-135-37-0)" style="fill: light-dark(rgb(0, 0, 0), rgb(255, 255, 255));"><text x="634" y="74.2">+id: int</text></g></g></g><g data-cell-id="xggSwS1l_uX2BKRk23sH-108"><g><rect x="628" y="93.2" width="143" height="37" fill="none" stroke="none" pointer-events="all"/></g><g><g fill="#000000" font-family="Helvetica" font-size="12px" clip-path="url(#mx-clip-632-98-135-37-0)" style="fill: light-dark(rgb(0, 0, 0), rgb(255, 255, 255));"><text x="634" y="111.2">+content: str</text></g></g></g><g data-cell-id="xggSwS1l_uX2BKRk23sH-109"><g><rect x="628" y="130.2" width="143" height="37" fill="none" stroke="none" pointer-events="all"/></g><g><g fill="#000000" font-family="Helvetica" font-size="12px" clip-path="url(#mx-clip-632-135-135-37-0)" style="fill: light-dark(rgb(0, 0, 0), rgb(255, 255, 255));"><text x="634" y="148.2">+...</text></g></g></g><g data-cell-id="xggSwS1l_uX2BKRk23sH-110"><g><path d="M 628 176.2 L 771 176.2" fill="none" stroke="#000000" stroke-miterlimit="10" pointer-events="all" style="stroke: light-dark(rgb(0, 0, 0), rgb(255, 255, 255));"/></g></g></g><g data-cell-id="xggSwS1l_uX2BKRk23sH-111"><g><path d="M 792 303 L 792 263 Q 792 243 772 243 L 627 243 Q 607 243 607 263 L 607 303" fill="none" stroke="#000000" stroke-width="3" stroke-miterlimit="10" pointer-events="all" style="stroke: light-dark(rgb(0, 0, 0), rgb(255, 255, 255));"/><path d="M 607 303 L 607 303 Q 607 323 627 323 L 772 323 Q 792 323 792 303 L 792 303" fill="none" stroke="#000000" stroke-width="3" stroke-miterlimit="10" pointer-events="none" style="stroke: light-dark(rgb(0, 0, 0), rgb(255, 255, 255));"/><path d="M 607 303 L 792 303" fill="none" stroke="#000000" stroke-width="3" stroke-miterlimit="10" pointer-events="none" style="stroke: light-dark(rgb(0, 0, 0), rgb(255, 255, 255));"/></g><g><g fill="#000000" font-family="Helvetica" font-weight="bold" text-anchor="middle" font-size="12px" style="fill: light-dark(rgb(0, 0, 0), rgb(255, 255, 255));"><text x="699.5" y="261">&lt;&lt;decorator&gt;&gt;</text><text x="699.5" y="275">connection_manager</text></g></g><g data-cell-id="xggSwS1l_uX2BKRk23sH-112"><g><path d="M 607 313 L 792 313" fill="none" stroke="#000000" stroke-miterlimit="10" pointer-events="all" style="stroke: light-dark(rgb(0, 0, 0), rgb(255, 255, 255));"/></g></g></g><g data-cell-id="xggSwS1l_uX2BKRk23sH-113"><g><path d="M 809 453 L 809 424.4 Q 809 401 785.6 401 L 613.4 401 Q 590 401 590 424.4 L 590 453" fill="none" stroke="#000000" stroke-width="3" stroke-miterlimit="10" pointer-events="all" style="stroke: light-dark(rgb(0, 0, 0), rgb(255, 255, 255));"/><path d="M 590 453 L 590 586.6 Q 590 610 613.4 610 L 785.6 610 Q 809 610 809 586.6 L 809 453" fill="none" stroke="#000000" stroke-width="3" stroke-miterlimit="10" pointer-events="none" style="stroke: light-dark(rgb(0, 0, 0), rgb(255, 255, 255));"/><path d="M 590 453 L 809 453" fill="none" stroke="#000000" stroke-width="3" stroke-miterlimit="10" pointer-events="none" style="stroke: light-dark(rgb(0, 0, 0), rgb(255, 255, 255));"/></g><g><g fill="#000000" font-family="Helvetica" font-weight="bold" text-anchor="middle" font-size="12px" style="fill: light-dark(rgb(0, 0, 0), rgb(255, 255, 255));"><text x="699.5" y="419">&lt;&lt;module&gt;&gt;</text><text x="699.5" y="433">QuerysModule</text></g></g><g data-cell-id="xggSwS1l_uX2BKRk23sH-114"><g><rect x="590" y="453" width="219" height="35" fill="none" stroke="none" pointer-events="all"/></g><g><g fill="#000000" font-family="Helvetica" font-size="12px" clip-path="url(#mx-clip-594-458-211-35-0)" style="fill: light-dark(rgb(0, 0, 0), rgb(255, 255, 255));"><text x="596" y="471">+CREATE_TABLE</text></g></g></g><g data-cell-id="xggSwS1l_uX2BKRk23sH-115"><g><rect x="590" y="488" width="219" height="35" fill="none" stroke="none" pointer-events="all"/></g><g><g fill="#000000" font-family="Helvetica" font-size="12px" clip-path="url(#mx-clip-594-493-211-35-0)" style="fill: light-dark(rgb(0, 0, 0), rgb(255, 255, 255));"><text x="596" y="506">+GET_ALL_TASKS</text></g></g></g><g data-cell-id="xggSwS1l_uX2BKRk23sH-116"><g><rect x="590" y="523" width="219" height="35" fill="none" stroke="none" pointer-events="all"/></g><g><g fill="#000000" font-family="Helvetica" font-size="12px" clip-path="url(#mx-clip-594-528-211-35-0)" style="fill: light-dark(rgb(0, 0, 0), rgb(255, 255, 255));"><text x="596" y="541">+NEW_TASK</text></g></g></g><g data-cell-id="xggSwS1l_uX2BKRk23sH-117"><g><rect x="590" y="558" width="219" height="35" fill="none" stroke="none" pointer-events="all"/></g><g><g fill="#000000" font-family="Helvetica" font-size="12px" clip-path="url(#mx-clip-594-563-211-35-0)" style="fill: light-dark(rgb(0, 0, 0), rgb(255, 255, 255));"><text x="596" y="576">+...</text></g></g></g><g data-cell-id="xggSwS1l_uX2BKRk23sH-118"><g><path d="M 590 601.5 L 809 601.5" fill="none" stroke="#000000" stroke-miterlimit="10" pointer-events="all" style="stroke: light-dark(rgb(0, 0, 0), rgb(255, 255, 255));"/></g></g></g><g data-cell-id="xggSwS1l_uX2BKRk23sH-119"><g><path d="M 390 163.32 Q 490 97 625.76 93.16" fill="none" stroke="none" pointer-events="stroke"/><path d="M 614.07 100 L 626.88 93.13 L 613.7 87" fill="none" stroke="none" pointer-events="all"/><path d="M 390 163.32 C 453.1 122.43 531.4 93.95 625.76 93.16 M 390 163.32 C 455.21 121.21 533.44 92.46 625.76 93.16" fill="none" stroke="#000000" stroke-linejoin="round" stroke-linecap="round" stroke-miterlimit="10" pointer-events="stroke" style="stroke: light-dark(rgb(0, 0, 0), rgb(255, 255, 255));"/><path d="M 614.07 100 C 615.37 97.88 620.69 96.21 626.88 93.13 M 614.07 100 C 616.83 99.48 621 95.89 626.88 93.13 M 626.88 93.13 C 620.65 88.58 615.44 86.35 613.7 87 M 626.88 93.13 C 621.75 91.22 617.66 87.3 613.7 87" fill="none" stroke="#000000" stroke-linejoin="round" stroke-linecap="round" stroke-miterlimit="10" pointer-events="all" style="stroke: light-dark(rgb(0, 0, 0), rgb(255, 255, 255));"/></g><g><g fill="#000000" font-family="Helvetica" text-anchor="middle" font-size="11px" style="fill: light-dark(rgb(0, 0, 0), rgb(255, 255, 255));"><text x="499" y="101.25">"crea y devuelve"</text></g></g></g><g data-cell-id="xggSwS1l_uX2BKRk23sH-120"><g><path d="M 390 295.17 Q 390 295.17 604.77 283.13" fill="none" stroke="none" pointer-events="stroke"/><path d="M 593.27 290.28 L 605.88 283.06 L 592.54 277.3" fill="none" stroke="none" pointer-events="all"/><path d="M 390 295.17 C 386.44 297.46 459.57 295.1 604.77 283.13 M 390 295.17 C 391.32 299.49 463.44 287.15 604.77 283.13" fill="none" stroke="#000000" stroke-linejoin="round" stroke-linecap="round" stroke-miterlimit="10" stroke-dasharray="3 3" pointer-events="stroke" style="stroke: light-dark(rgb(0, 0, 0), rgb(255, 255, 255));"/><path d="M 593.27 290.28 C 598.71 289.72 601.24 288.53 605.88 283.06 M 593.27 290.28 C 596.11 288.09 598.08 288.61 605.88 283.06 M 605.88 283.06 C 599.69 278.42 599.06 280.34 592.54 277.3 M 605.88 283.06 C 604.1 280.48 598.59 279.25 592.54 277.3" fill="none" stroke="#000000" stroke-linejoin="round" stroke-linecap="round" stroke-miterlimit="10" pointer-events="all" style="stroke: light-dark(rgb(0, 0, 0), rgb(255, 255, 255));"/></g><g><g fill="#000000" font-family="Helvetica" text-anchor="middle" font-size="11px" style="fill: light-dark(rgb(0, 0, 0), rgb(255, 255, 255));"><text x="498.83" y="293.56">"usa en métodos"</text></g></g></g><g data-cell-id="xggSwS1l_uX2BKRk23sH-121"><g><path d="M 390 434.14 Q 490 509 587.77 505.58" fill="none" stroke="none" pointer-events="stroke"/><path d="M 576.12 512.49 L 588.88 505.54 L 575.66 499.5" fill="none" stroke="none" pointer-events="all"/><path d="M 390 434.14 C 453.11 487.02 525.39 509.52 587.77 505.58 M 390 434.14 C 455.6 483.03 522.51 507.17 587.77 505.58" fill="none" stroke="#000000" stroke-linejoin="round" stroke-linecap="round" stroke-miterlimit="10" stroke-dasharray="3 3" pointer-events="stroke" style="stroke: light-dark(rgb(0, 0, 0), rgb(255, 255, 255));"/><path d="M 576.12 512.49 C 579.91 510.17 580.76 509.33 588.88 505.54 M 576.12 512.49 C 578.72 510.01 583.94 508.95 588.88 505.54 M 588.88 505.54 C 581.81 503.61 579.09 503.29 575.66 499.5 M 588.88 505.54 C 586.32 505.76 582.46 504.29 575.66 499.5" fill="none" stroke="#000000" stroke-linejoin="round" stroke-linecap="round" stroke-miterlimit="10" pointer-events="all" style="stroke: light-dark(rgb(0, 0, 0), rgb(255, 255, 255));"/></g><g><g fill="#000000" font-family="Helvetica" text-anchor="middle" font-size="11px" style="fill: light-dark(rgb(0, 0, 0), rgb(255, 255, 255));"><text x="479.66" y="505.76">"usa para consultas"</text></g></g></g></g></g></g></svg>