<?xml version="1.0" encoding="UTF-8"?>
<!DOCTYPE svg PUBLIC "-//W3C//DTD SVG 1.1//EN" "http://www.w3.org/Graphics/SVG/1.1/DTD/svg11.dtd">
<svg xmlns="http://www.w3.org/2000/svg" style="background: transparent; background-color: transparent; color-scheme: light dark;" xmlns:xlink="http://www.w3.org/1999/xlink" version="1.1" width="1668px" height="722px" viewBox="-0.5 -0.5 1668 722"><defs><clipPath id="mx-clip-721-76-151-42-0"><rect x="721" y="76" width="151" height="42"/></clipPath><clipPath id="mx-clip-721-118-151-42-0"><rect x="721" y="118" width="151" height="42"/></clipPath><clipPath id="mx-clip-1057-543-135-33-0"><rect x="1057" y="543" width="135" height="33"/></clipPath><clipPath id="mx-clip-1057-576-135-33-0"><rect x="1057" y="576" width="135" height="33"/></clipPath><clipPath id="mx-clip-1057-609-135-33-0"><rect x="1057" y="609" width="135" height="33"/></clipPath><clipPath id="mx-clip-1057-642-135-33-0"><rect x="1057" y="642" width="135" height="33"/></clipPath><clipPath id="mx-clip-1057-675-135-33-0"><rect x="1057" y="675" width="135" height="33"/></clipPath><clipPath id="mx-clip-5-318-263-47-0"><rect x="5" y="318" width="263" height="47"/></clipPath><clipPath id="mx-clip-326-318-272-47-0"><rect x="326" y="318" width="272" height="47"/></clipPath><clipPath id="mx-clip-656-318-280-47-0"><rect x="656" y="318" width="280" height="47"/></clipPath><clipPath id="mx-clip-995-282-260-40-0"><rect x="995" y="282" width="260" height="40"/></clipPath><clipPath id="mx-clip-995-330-260-40-0"><rect x="995" y="330" width="260" height="40"/></clipPath><clipPath id="mx-clip-995-370-260-40-0"><rect x="995" y="370" width="260" height="40"/></clipPath><clipPath id="mx-clip-1312-267-350-37-0"><rect x="1312" y="267" width="350" height="37"/></clipPath><clipPath id="mx-clip-1312-304-350-37-0"><rect x="1312" y="304" width="350" height="37"/></clipPath><clipPath id="mx-clip-1312-349-350-37-0"><rect x="1312" y="349" width="350" height="37"/></clipPath><clipPath id="mx-clip-1312-386-350-37-0"><rect x="1312" y="386" width="350" height="37"/></clipPath></defs><g><g data-cell-id="0"><g data-cell-id="1"><g data-cell-id="xggSwS1l_uX2BKRk23sH-56"><g><path d="M 876 63.25 L 876 29.01 Q 876 1 847.99 1 L 745.01 1 Q 717 1 717 29.01 L 717 63.25" fill="none" stroke="#000000" stroke-width="3" stroke-miterlimit="10" pointer-events="all" style="stroke: light-dark(rgb(0, 0, 0), rgb(255, 255, 255));"/><path d="M 717 63.25 L 717 127.24 Q 717 155.25 745.01 155.25 L 847.99 155.25 Q 876 155.25 876 127.24 L 876 63.25" fill="none" stroke="#000000" stroke-width="3" stroke-miterlimit="10" pointer-events="none" style="stroke: light-dark(rgb(0, 0, 0), rgb(255, 255, 255));"/><path d="M 717 63.25 L 876 63.25" fill="none" stroke="#000000" stroke-width="3" stroke-miterlimit="10" pointer-events="none" style="stroke: light-dark(rgb(0, 0, 0), rgb(255, 255, 255));"/></g><g><g fill="#000000" font-family="Helvetica" font-weight="bold" text-anchor="middle" font-size="12px" style="fill: light-dark(rgb(0, 0, 0), rgb(255, 255, 255));"><text x="796.5" y="19">&lt;&lt;Textual&gt;&gt;</text><text x="796.5" y="33">ModalScreen</text></g></g><g data-cell-id="xggSwS1l_uX2BKRk23sH-57"><g><path d="M 717 67.25 L 876 67.25" fill="none" stroke="#000000" stroke-miterlimit="10" pointer-events="all" style="stroke: light-dark(rgb(0, 0, 0), rgb(255, 255, 255));"/></g></g><g data-cell-id="xggSwS1l_uX2BKRk23sH-58"><g><rect x="717" y="71.25" width="159" height="42" fill="none" stroke="none" pointer-events="all"/></g><g><g fill="#000000" font-family="Helvetica" font-size="12px" clip-path="url(#mx-clip-721-76-151-42-0)" style="fill: light-dark(rgb(0, 0, 0), rgb(255, 255, 255));"><text x="723" y="89.25">+compose()</text></g></g></g><g data-cell-id="xggSwS1l_uX2BKRk23sH-59"><g><rect x="717" y="113.25" width="159" height="42" fill="none" stroke="none" pointer-events="all"/></g><g><g fill="#000000" font-family="Helvetica" font-size="12px" clip-path="url(#mx-clip-721-118-151-42-0)" style="fill: light-dark(rgb(0, 0, 0), rgb(255, 255, 255));"><text x="723" y="131.25">+dismiss()</text></g></g></g></g><g data-cell-id="xggSwS1l_uX2BKRk23sH-60"><g><path d="M 1196 537.71 L 1196 510.37 Q 1196 488 1173.63 488 L 1075.37 488 Q 1053 488 1053 510.37 L 1053 537.71" fill="none" stroke="#000000" stroke-width="3" stroke-miterlimit="10" pointer-events="all" style="stroke: light-dark(rgb(0, 0, 0), rgb(255, 255, 255));"/><path d="M 1053 537.71 L 1053 697.34 Q 1053 719.71 1075.37 719.71 L 1173.63 719.71 Q 1196 719.71 1196 697.34 L 1196 537.71" fill="none" stroke="#000000" stroke-width="3" stroke-miterlimit="10" pointer-events="none" style="stroke: light-dark(rgb(0, 0, 0), rgb(255, 255, 255));"/><path d="M 1053 537.71 L 1196 537.71" fill="none" stroke="#000000" stroke-width="3" stroke-miterlimit="10" pointer-events="none" style="stroke: light-dark(rgb(0, 0, 0), rgb(255, 255, 255));"/></g><g><g fill="#000000" font-family="Helvetica" font-weight="bold" text-anchor="middle" font-size="12px" style="fill: light-dark(rgb(0, 0, 0), rgb(255, 255, 255));"><text x="1124.5" y="506">&lt;&lt;Model&gt;&gt;</text><text x="1124.5" y="520">Task</text></g></g><g data-cell-id="xggSwS1l_uX2BKRk23sH-61"><g><rect x="1053" y="537.71" width="143" height="33" fill="none" stroke="none" pointer-events="all"/></g><g><g fill="#000000" font-family="Helvetica" font-size="12px" clip-path="url(#mx-clip-1057-543-135-33-0)" style="fill: light-dark(rgb(0, 0, 0), rgb(255, 255, 255));"><text x="1059" y="555.71">+id: int</text></g></g></g><g data-cell-id="xggSwS1l_uX2BKRk23sH-62"><g><rect x="1053" y="570.71" width="143" height="33" fill="none" stroke="none" pointer-events="all"/></g><g><g fill="#000000" font-family="Helvetica" font-size="12px" clip-path="url(#mx-clip-1057-576-135-33-0)" style="fill: light-dark(rgb(0, 0, 0), rgb(255, 255, 255));"><text x="1059" y="588.71">+content: str</text></g></g></g><g data-cell-id="xggSwS1l_uX2BKRk23sH-63"><g><rect x="1053" y="603.71" width="143" height="33" fill="none" stroke="none" pointer-events="all"/></g><g><g fill="#000000" font-family="Helvetica" font-size="12px" clip-path="url(#mx-clip-1057-609-135-33-0)" style="fill: light-dark(rgb(0, 0, 0), rgb(255, 255, 255));"><text x="1059" y="621.71">+tag: str</text></g></g></g><g data-cell-id="xggSwS1l_uX2BKRk23sH-64"><g><rect x="1053" y="636.71" width="143" height="33" fill="none" stroke="none" pointer-events="all"/></g><g><g fill="#000000" font-family="Helvetica" font-size="12px" clip-path="url(#mx-clip-1057-642-135-33-0)" style="fill: light-dark(rgb(0, 0, 0), rgb(255, 255, 255));"><text x="1059" y="654.71">+priority: str</text></g></g></g><g data-cell-id="xggSwS1l_uX2BKRk23sH-65"><g><rect x="1053" y="669.71" width="143" height="33" fill="none" stroke="none" pointer-events="all"/></g><g><g fill="#000000" font-family="Helvetica" font-size="12px" clip-path="url(#mx-clip-1057-675-135-33-0)" style="fill: light-dark(rgb(0, 0, 0), rgb(255, 255, 255));"><text x="1059" y="687.71">+details: str</text></g></g></g><g data-cell-id="xggSwS1l_uX2BKRk23sH-66"><g><path d="M 1053 711.21 L 1196 711.21" fill="none" stroke="#000000" stroke-miterlimit="10" pointer-events="all" style="stroke: light-dark(rgb(0, 0, 0), rgb(255, 255, 255));"/></g></g></g><g data-cell-id="xggSwS1l_uX2BKRk23sH-67"><g><path d="M 272 305.2 L 272 279.24 Q 272 258 250.76 258 L 22.24 258 Q 1 258 1 279.24 L 1 305.2" fill="none" stroke="#000000" stroke-width="3" stroke-miterlimit="10" pointer-events="all" style="stroke: light-dark(rgb(0, 0, 0), rgb(255, 255, 255));"/><path d="M 1 305.2 L 1 338.96 Q 1 360.2 22.24 360.2 L 250.76 360.2 Q 272 360.2 272 338.96 L 272 305.2" fill="none" stroke="#000000" stroke-width="3" stroke-miterlimit="10" pointer-events="none" style="stroke: light-dark(rgb(0, 0, 0), rgb(255, 255, 255));"/><path d="M 1 305.2 L 272 305.2" fill="none" stroke="#000000" stroke-width="3" stroke-miterlimit="10" pointer-events="none" style="stroke: light-dark(rgb(0, 0, 0), rgb(255, 255, 255));"/></g><g><g fill="#000000" font-family="Helvetica" font-weight="bold" text-anchor="middle" font-size="12px" style="fill: light-dark(rgb(0, 0, 0), rgb(255, 255, 255));"><text x="136.5" y="276">AskIdScreen</text></g></g><g data-cell-id="xggSwS1l_uX2BKRk23sH-68"><g><path d="M 1 309.2 L 272 309.2" fill="none" stroke="#000000" stroke-miterlimit="10" pointer-events="all" style="stroke: light-dark(rgb(0, 0, 0), rgb(255, 255, 255));"/></g></g><g data-cell-id="xggSwS1l_uX2BKRk23sH-69"><g><rect x="1" y="313.2" width="271" height="47" fill="none" stroke="none" pointer-events="all"/></g><g><g fill="#000000" font-family="Helvetica" font-size="12px" clip-path="url(#mx-clip-5-318-263-47-0)" style="fill: light-dark(rgb(0, 0, 0), rgb(255, 255, 255));"><text x="7" y="331.2">+on_input_submitted(event)</text></g></g></g></g><g data-cell-id="xggSwS1l_uX2BKRk23sH-70"><g><path d="M 602 305.2 L 602 279.24 Q 602 258 580.76 258 L 343.24 258 Q 322 258 322 279.24 L 322 305.2" fill="none" stroke="#000000" stroke-width="3" stroke-miterlimit="10" pointer-events="all" style="stroke: light-dark(rgb(0, 0, 0), rgb(255, 255, 255));"/><path d="M 322 305.2 L 322 338.96 Q 322 360.2 343.24 360.2 L 580.76 360.2 Q 602 360.2 602 338.96 L 602 305.2" fill="none" stroke="#000000" stroke-width="3" stroke-miterlimit="10" pointer-events="none" style="stroke: light-dark(rgb(0, 0, 0), rgb(255, 255, 255));"/><path d="M 322 305.2 L 602 305.2" fill="none" stroke="#000000" stroke-width="3" stroke-miterlimit="10" pointer-events="none" style="stroke: light-dark(rgb(0, 0, 0), rgb(255, 255, 255));"/></g><g><g fill="#000000" font-family="Helvetica" font-weight="bold" text-anchor="middle" font-size="12px" style="fill: light-dark(rgb(0, 0, 0), rgb(255, 255, 255));"><text x="462" y="276">AddTaskScreen</text></g></g><g data-cell-id="xggSwS1l_uX2BKRk23sH-71"><g><path d="M 322 309.2 L 602 309.2" fill="none" stroke="#000000" stroke-miterlimit="10" pointer-events="all" style="stroke: light-dark(rgb(0, 0, 0), rgb(255, 255, 255));"/></g></g><g data-cell-id="xggSwS1l_uX2BKRk23sH-72"><g><rect x="322" y="313.2" width="280" height="47" fill="none" stroke="none" pointer-events="all"/></g><g><g fill="#000000" font-family="Helvetica" font-size="12px" clip-path="url(#mx-clip-326-318-272-47-0)" style="fill: light-dark(rgb(0, 0, 0), rgb(255, 255, 255));"><text x="328" y="331.2">+on_button_pressed(event)</text></g></g></g></g><g data-cell-id="xggSwS1l_uX2BKRk23sH-73"><g><path d="M 940 305.2 L 940 279.24 Q 940 258 918.76 258 L 673.24 258 Q 652 258 652 279.24 L 652 305.2" fill="none" stroke="#000000" stroke-width="3" stroke-miterlimit="10" pointer-events="all" style="stroke: light-dark(rgb(0, 0, 0), rgb(255, 255, 255));"/><path d="M 652 305.2 L 652 338.96 Q 652 360.2 673.24 360.2 L 918.76 360.2 Q 940 360.2 940 338.96 L 940 305.2" fill="none" stroke="#000000" stroke-width="3" stroke-miterlimit="10" pointer-events="none" style="stroke: light-dark(rgb(0, 0, 0), rgb(255, 255, 255));"/><path d="M 652 305.2 L 940 305.2" fill="none" stroke="#000000" stroke-width="3" stroke-miterlimit="10" pointer-events="none" style="stroke: light-dark(rgb(0, 0, 0), rgb(255, 255, 255));"/></g><g><g fill="#000000" font-family="Helvetica" font-weight="bold" text-anchor="middle" font-size="12px" style="fill: light-dark(rgb(0, 0, 0), rgb(255, 255, 255));"><text x="796" y="276">FilterTasksScreen</text></g></g><g data-cell-id="xggSwS1l_uX2BKRk23sH-74"><g><path d="M 652 309.2 L 940 309.2" fill="none" stroke="#000000" stroke-miterlimit="10" pointer-events="all" style="stroke: light-dark(rgb(0, 0, 0), rgb(255, 255, 255));"/></g></g><g data-cell-id="xggSwS1l_uX2BKRk23sH-75"><g><rect x="652" y="313.2" width="288" height="47" fill="none" stroke="none" pointer-events="all"/></g><g><g fill="#000000" font-family="Helvetica" font-size="12px" clip-path="url(#mx-clip-656-318-280-47-0)" style="fill: light-dark(rgb(0, 0, 0), rgb(255, 255, 255));"><text x="658" y="331.2">+on_button_pressed(event)</text></g></g></g></g><g data-cell-id="xggSwS1l_uX2BKRk23sH-76"><g><path d="M 1259 277 L 1259 255 Q 1259 237 1241 237 L 1009 237 Q 991 237 991 255 L 991 277" fill="none" stroke="#000000" stroke-width="3" stroke-miterlimit="10" pointer-events="all" style="stroke: light-dark(rgb(0, 0, 0), rgb(255, 255, 255));"/><path d="M 991 277 L 991 387 Q 991 405 1009 405 L 1241 405 Q 1259 405 1259 387 L 1259 277" fill="none" stroke="#000000" stroke-width="3" stroke-miterlimit="10" pointer-events="none" style="stroke: light-dark(rgb(0, 0, 0), rgb(255, 255, 255));"/><path d="M 991 277 L 1259 277" fill="none" stroke="#000000" stroke-width="3" stroke-miterlimit="10" pointer-events="none" style="stroke: light-dark(rgb(0, 0, 0), rgb(255, 255, 255));"/></g><g><g fill="#000000" font-family="Helvetica" font-weight="bold" text-anchor="middle" font-size="12px" style="fill: light-dark(rgb(0, 0, 0), rgb(255, 255, 255));"><text x="1125" y="255">AskTaskEdit</text></g></g><g data-cell-id="xggSwS1l_uX2BKRk23sH-77"><g><rect x="991" y="277" width="268" height="40" fill="none" stroke="none" pointer-events="all"/></g><g><g fill="#000000" font-family="Helvetica" font-size="12px" clip-path="url(#mx-clip-995-282-260-40-0)" style="fill: light-dark(rgb(0, 0, 0), rgb(255, 255, 255));"><text x="997" y="295">-task_to_edit: Task</text></g></g></g><g data-cell-id="xggSwS1l_uX2BKRk23sH-78"><g><path d="M 991 321 L 1259 321" fill="none" stroke="#000000" stroke-miterlimit="10" pointer-events="all" style="stroke: light-dark(rgb(0, 0, 0), rgb(255, 255, 255));"/></g></g><g data-cell-id="xggSwS1l_uX2BKRk23sH-79"><g><rect x="991" y="325" width="268" height="40" fill="none" stroke="none" pointer-events="all"/></g><g><g fill="#000000" font-family="Helvetica" font-size="12px" clip-path="url(#mx-clip-995-330-260-40-0)" style="fill: light-dark(rgb(0, 0, 0), rgb(255, 255, 255));"><text x="997" y="343">+__init__(task_to_edit: Task)</text></g></g></g><g data-cell-id="xggSwS1l_uX2BKRk23sH-80"><g><rect x="991" y="365" width="268" height="40" fill="none" stroke="none" pointer-events="all"/></g><g><g fill="#000000" font-family="Helvetica" font-size="12px" clip-path="url(#mx-clip-995-370-260-40-0)" style="fill: light-dark(rgb(0, 0, 0), rgb(255, 255, 255));"><text x="997" y="383">+on_button_pressed(event)</text></g></g></g></g><g data-cell-id="xggSwS1l_uX2BKRk23sH-81"><g><path d="M 1666 261.8 L 1666 241.56 Q 1666 225 1649.44 225 L 1324.56 225 Q 1308 225 1308 241.56 L 1308 261.8" fill="none" stroke="#000000" stroke-width="3" stroke-miterlimit="10" pointer-events="all" style="stroke: light-dark(rgb(0, 0, 0), rgb(255, 255, 255));"/><path d="M 1308 261.8 L 1308 401.24 Q 1308 417.8 1324.56 417.8 L 1649.44 417.8 Q 1666 417.8 1666 401.24 L 1666 261.8" fill="none" stroke="#000000" stroke-width="3" stroke-miterlimit="10" pointer-events="none" style="stroke: light-dark(rgb(0, 0, 0), rgb(255, 255, 255));"/><path d="M 1308 261.8 L 1666 261.8" fill="none" stroke="#000000" stroke-width="3" stroke-miterlimit="10" pointer-events="none" style="stroke: light-dark(rgb(0, 0, 0), rgb(255, 255, 255));"/></g><g><g fill="#000000" font-family="Helvetica" font-weight="bold" text-anchor="middle" font-size="12px" style="fill: light-dark(rgb(0, 0, 0), rgb(255, 255, 255));"><text x="1487" y="243">ViewDetailsScreen</text></g></g><g data-cell-id="xggSwS1l_uX2BKRk23sH-82"><g><rect x="1308" y="261.8" width="358" height="37" fill="none" stroke="none" pointer-events="all"/></g><g><g fill="#000000" font-family="Helvetica" font-size="12px" clip-path="url(#mx-clip-1312-267-350-37-0)" style="fill: light-dark(rgb(0, 0, 0), rgb(255, 255, 255));"><text x="1314" y="279.8">-details_content: str</text></g></g></g><g data-cell-id="xggSwS1l_uX2BKRk23sH-83"><g><rect x="1308" y="298.8" width="358" height="37" fill="none" stroke="none" pointer-events="all"/></g><g><g fill="#000000" font-family="Helvetica" font-size="12px" clip-path="url(#mx-clip-1312-304-350-37-0)" style="fill: light-dark(rgb(0, 0, 0), rgb(255, 255, 255));"><text x="1314" y="316.8">-task_id: int</text></g></g></g><g data-cell-id="xggSwS1l_uX2BKRk23sH-84"><g><path d="M 1308 339.8 L 1666 339.8" fill="none" stroke="#000000" stroke-miterlimit="10" pointer-events="all" style="stroke: light-dark(rgb(0, 0, 0), rgb(255, 255, 255));"/></g></g><g data-cell-id="xggSwS1l_uX2BKRk23sH-85"><g><rect x="1308" y="343.8" width="358" height="37" fill="none" stroke="none" pointer-events="all"/></g><g><g fill="#000000" font-family="Helvetica" font-size="12px" clip-path="url(#mx-clip-1312-349-350-37-0)" style="fill: light-dark(rgb(0, 0, 0), rgb(255, 255, 255));"><text x="1314" y="361.8">+__init__(details_content: str, task_id: int)</text></g></g></g><g data-cell-id="xggSwS1l_uX2BKRk23sH-86"><g><rect x="1308" y="380.8" width="358" height="37" fill="none" stroke="none" pointer-events="all"/></g><g><g fill="#000000" font-family="Helvetica" font-size="12px" clip-path="url(#mx-clip-1312-386-350-37-0)" style="fill: light-dark(rgb(0, 0, 0), rgb(255, 255, 255));"><text x="1314" y="398.8">+on_button_pressed(event)</text></g></g></g></g><g data-cell-id="xggSwS1l_uX2BKRk23sH-87"><g><path d="M 699.2 93.83 Q 137 200 136.5 258" fill="none" stroke="none" pointer-events="stroke"/><path d="M 715.9 90.67 L 700.77 102.18 L 697.62 85.47 Z" fill="none" stroke="none" pointer-events="all"/><path d="M 699.2 93.83 C 325.62 161.36 134.57 222.21 136.5 258 M 699.2 93.83 C 327.65 161.1 141.13 222.48 136.5 258" fill="none" stroke="#000000" stroke-linejoin="round" stroke-linecap="round" stroke-miterlimit="10" pointer-events="stroke" style="stroke: light-dark(rgb(0, 0, 0), rgb(255, 255, 255));"/><path d="M 715.9 90.67 C 713.44 96.98 702.81 101.66 700.77 102.18 M 715.9 90.67 C 711.5 94.23 704.75 97.65 700.77 102.18 M 700.77 102.18 C 701.75 100.44 700.19 97.06 697.62 85.47 M 700.77 102.18 C 700.38 97.19 698.54 95.45 697.62 85.47 M 697.62 85.47 C 704.27 86.12 709.11 85.5 715.9 90.67 M 697.62 85.47 C 700.93 86.69 707.17 89.79 715.9 90.67" fill="none" stroke="#000000" stroke-linejoin="round" stroke-linecap="round" stroke-miterlimit="10" pointer-events="all" style="stroke: light-dark(rgb(0, 0, 0), rgb(255, 255, 255));"/></g></g><g data-cell-id="xggSwS1l_uX2BKRk23sH-88"><g><path d="M 700.1 107.8 Q 462 200 462 258" fill="none" stroke="none" pointer-events="stroke"/><path d="M 715.96 101.67 L 703.17 115.73 L 697.04 99.88 Z" fill="none" stroke="none" pointer-events="all"/><path d="M 700.1 107.8 C 542.58 166.69 464.55 219.92 462 258 M 700.1 107.8 C 542.23 169.62 464.37 216.59 462 258" fill="none" stroke="#000000" stroke-linejoin="round" stroke-linecap="round" stroke-miterlimit="10" pointer-events="stroke" style="stroke: light-dark(rgb(0, 0, 0), rgb(255, 255, 255));"/><path d="M 715.96 101.67 C 712.11 107.19 707.62 113.08 703.17 115.73 M 715.96 101.67 C 712.54 104.97 711.29 109.84 703.17 115.73 M 703.17 115.73 C 702.24 110.47 697.87 104.45 697.04 99.88 M 703.17 115.73 C 700.87 110.79 700.02 109.27 697.04 99.88 M 697.04 99.88 C 701.99 101.63 702.44 102.86 715.96 101.67 M 697.04 99.88 C 703.6 100.53 708.92 100.75 715.96 101.67" fill="none" stroke="#000000" stroke-linejoin="round" stroke-linecap="round" stroke-miterlimit="10" pointer-events="all" style="stroke: light-dark(rgb(0, 0, 0), rgb(255, 255, 255));"/></g></g><g data-cell-id="xggSwS1l_uX2BKRk23sH-89"><g><path d="M 796.41 173.37 Q 796.41 173.37 796 258" fill="none" stroke="none" pointer-events="stroke"/><path d="M 796.49 156.37 L 804.91 173.41 L 787.91 173.33 Z" fill="none" stroke="none" pointer-events="all"/><path d="M 796.41 173.37 C 797.63 171.48 795.63 199.88 796 258 M 796.41 173.37 C 794.89 177.59 796.72 202.15 796 258" fill="none" stroke="#000000" stroke-linejoin="round" stroke-linecap="round" stroke-miterlimit="10" pointer-events="stroke" style="stroke: light-dark(rgb(0, 0, 0), rgb(255, 255, 255));"/><path d="M 796.49 156.37 C 797.5 160.77 805.38 168.03 804.91 173.41 M 796.49 156.37 C 797.28 161.98 800.92 167.31 804.91 173.41 M 804.91 173.41 C 800.26 175.63 797.39 171.35 787.91 173.33 M 804.91 173.41 C 799.33 174.7 791.41 172.61 787.91 173.33 M 787.91 173.33 C 790.88 170 794.06 159.37 796.49 156.37 M 787.91 173.33 C 790.15 168.01 794.78 163.83 796.49 156.37" fill="none" stroke="#000000" stroke-linejoin="round" stroke-linecap="round" stroke-miterlimit="10" pointer-events="all" style="stroke: light-dark(rgb(0, 0, 0), rgb(255, 255, 255));"/></g></g><g data-cell-id="xggSwS1l_uX2BKRk23sH-90"><g><path d="M 892.88 109.39 Q 1125 200 1125 237" fill="none" stroke="none" pointer-events="stroke"/><path d="M 877.04 103.21 L 895.97 101.47 L 889.79 117.31 Z" fill="none" stroke="none" pointer-events="all"/><path d="M 892.88 109.39 C 1048.85 166.87 1126.19 208.35 1125 237 M 892.88 109.39 C 1048.88 167.04 1129.1 212.16 1125 237" fill="none" stroke="#000000" stroke-linejoin="round" stroke-linecap="round" stroke-miterlimit="10" pointer-events="stroke" style="stroke: light-dark(rgb(0, 0, 0), rgb(255, 255, 255));"/><path d="M 877.04 103.21 C 879.54 103.56 887.3 105.34 895.97 101.47 M 877.04 103.21 C 881.44 104.5 889.31 101.71 895.97 101.47 M 895.97 101.47 C 894.28 107.91 892.9 112.35 889.79 117.31 M 895.97 101.47 C 893.55 104.7 893.58 108.39 889.79 117.31 M 889.79 117.31 C 882.32 109.69 884.33 110.32 877.04 103.21 M 889.79 117.31 C 885.46 112.56 885.34 109.82 877.04 103.21" fill="none" stroke="#000000" stroke-linejoin="round" stroke-linecap="round" stroke-miterlimit="10" pointer-events="all" style="stroke: light-dark(rgb(0, 0, 0), rgb(255, 255, 255));"/></g></g><g data-cell-id="xggSwS1l_uX2BKRk23sH-91"><g><path d="M 893.83 92.16 Q 1487 200 1487 225" fill="none" stroke="none" pointer-events="stroke"/><path d="M 877.1 89.12 L 895.35 83.8 L 892.31 100.53 Z" fill="none" stroke="none" pointer-events="all"/><path d="M 893.83 92.16 C 1290.5 161.81 1485 210.07 1487 225 M 893.83 92.16 C 1288.15 165.16 1489.18 211.47 1487 225" fill="none" stroke="#000000" stroke-linejoin="round" stroke-linecap="round" stroke-miterlimit="10" pointer-events="stroke" style="stroke: light-dark(rgb(0, 0, 0), rgb(255, 255, 255));"/><path d="M 877.1 89.12 C 884.84 86.61 890.13 87.59 895.35 83.8 M 877.1 89.12 C 884.81 85.34 889.19 83.43 895.35 83.8 M 895.35 83.8 C 893.5 87.86 890.9 90.86 892.31 100.53 M 895.35 83.8 C 895.88 86.49 894.85 89.6 892.31 100.53 M 892.31 100.53 C 890.99 96.48 881.29 93.72 877.1 89.12 M 892.31 100.53 C 888.83 96.26 885.67 95.36 877.1 89.12" fill="none" stroke="#000000" stroke-linejoin="round" stroke-linecap="round" stroke-miterlimit="10" pointer-events="all" style="stroke: light-dark(rgb(0, 0, 0), rgb(255, 255, 255));"/></g></g><g data-cell-id="xggSwS1l_uX2BKRk23sH-92"><g><path d="M 1125 405 Q 1125 405 1124.51 485.76" fill="none" stroke="none" pointer-events="stroke"/><path d="M 1118.09 473.84 L 1124.51 486.88 L 1131.08 473.92" fill="none" stroke="none" pointer-events="all"/><path d="M 1125 405 C 1126.22 403.43 1127.65 431.37 1124.51 485.76 M 1125 405 C 1121.49 400.77 1125.09 429.17 1124.51 485.76" fill="none" stroke="#000000" stroke-linejoin="round" stroke-linecap="round" stroke-miterlimit="10" pointer-events="stroke" style="stroke: light-dark(rgb(0, 0, 0), rgb(255, 255, 255));"/><path d="M 1118.09 473.84 C 1119.71 475.84 1119.56 482.53 1124.51 486.88 M 1118.09 473.84 C 1119.05 475.86 1121.1 480.8 1124.51 486.88 M 1124.51 486.88 C 1125.44 484.94 1130.34 476.98 1131.08 473.92 M 1124.51 486.88 C 1127.07 480.72 1130.58 477.95 1131.08 473.92" fill="none" stroke="#000000" stroke-linejoin="round" stroke-linecap="round" stroke-miterlimit="10" pointer-events="all" style="stroke: light-dark(rgb(0, 0, 0), rgb(255, 255, 255));"/></g><g><g fill="#000000" font-family="Helvetica" text-anchor="middle" font-size="11px" style="fill: light-dark(rgb(0, 0, 0), rgb(255, 255, 255));"><text x="1124.75" y="451.5">"recibe en constructor"</text></g></g></g></g></g></g></svg>