<?xml version="1.0" encoding="UTF-8"?>
<!DOCTYPE svg PUBLIC "-//W3C//DTD SVG 1.1//EN" "http://www.w3.org/Graphics/SVG/1.1/DTD/svg11.dtd">
<svg xmlns="http://www.w3.org/2000/svg" style="background: transparent; background-color: transparent; color-scheme: light dark;" xmlns:xlink="http://www.w3.org/1999/xlink" version="1.1" width="881px" height="454px" viewBox="-0.5 -0.5 881 454"><defs><clipPath id="mx-clip-5-115-433-30-0"><rect x="5" y="115" width="433" height="30"/></clipPath><clipPath id="mx-clip-5-153-433-30-0"><rect x="5" y="153" width="433" height="30"/></clipPath><clipPath id="mx-clip-5-183-433-30-0"><rect x="5" y="183" width="433" height="30"/></clipPath><clipPath id="mx-clip-5-213-433-30-0"><rect x="5" y="213" width="433" height="30"/></clipPath><clipPath id="mx-clip-5-243-433-30-0"><rect x="5" y="243" width="433" height="30"/></clipPath><clipPath id="mx-clip-5-273-433-30-0"><rect x="5" y="273" width="433" height="30"/></clipPath><clipPath id="mx-clip-5-303-433-30-0"><rect x="5" y="303" width="433" height="30"/></clipPath><clipPath id="mx-clip-5-333-433-30-0"><rect x="5" y="333" width="433" height="30"/></clipPath><clipPath id="mx-clip-5-363-433-30-0"><rect x="5" y="363" width="433" height="30"/></clipPath><clipPath id="mx-clip-692-63-183-38-0"><rect x="692" y="63" width="183" height="38"/></clipPath><clipPath id="mx-clip-692-109-183-38-0"><rect x="692" y="109" width="183" height="38"/></clipPath><clipPath id="mx-clip-692-147-183-38-0"><rect x="692" y="147" width="183" height="38"/></clipPath><clipPath id="mx-clip-692-185-183-38-0"><rect x="692" y="185" width="183" height="38"/></clipPath><clipPath id="mx-clip-716-327-135-37-0"><rect x="716" y="327" width="135" height="37"/></clipPath><clipPath id="mx-clip-716-364-135-37-0"><rect x="716" y="364" width="135" height="37"/></clipPath><clipPath id="mx-clip-716-401-135-37-0"><rect x="716" y="401" width="135" height="37"/></clipPath></defs><g><g data-cell-id="0"><g data-cell-id="1"><g data-cell-id="fDb5fomr2CojQYt8nf_2-2"><g><path d="M 442 110.4 L 442 93.68 Q 442 80 428.32 80 L 14.68 80 Q 1 80 1 93.68 L 1 110.4" fill="none" stroke="#000000" stroke-width="3" stroke-miterlimit="10" pointer-events="all" style="stroke: light-dark(rgb(0, 0, 0), rgb(255, 255, 255));"/><path d="M 1 110.4 L 1 374.72 Q 1 388.4 14.68 388.4 L 428.32 388.4 Q 442 388.4 442 374.72 L 442 110.4" fill="none" stroke="#000000" stroke-width="3" stroke-miterlimit="10" pointer-events="none" style="stroke: light-dark(rgb(0, 0, 0), rgb(255, 255, 255));"/><path d="M 1 110.4 L 442 110.4" fill="none" stroke="#000000" stroke-width="3" stroke-miterlimit="10" pointer-events="none" style="stroke: light-dark(rgb(0, 0, 0), rgb(255, 255, 255));"/></g><g><g fill="#000000" font-family="Helvetica" font-weight="bold" text-anchor="middle" font-size="12px" style="fill: light-dark(rgb(0, 0, 0), rgb(255, 255, 255));"><text x="221.5" y="98">TaskService</text></g></g><g data-cell-id="fDb5fomr2CojQYt8nf_2-3"><g><rect x="1" y="110.4" width="441" height="30" fill="none" stroke="none" pointer-events="all"/></g><g><g fill="#000000" font-family="Helvetica" font-size="12px" clip-path="url(#mx-clip-5-115-433-30-0)" style="fill: light-dark(rgb(0, 0, 0), rgb(255, 255, 255));"><text x="7" y="128.4">-repo: RepositoryDB</text></g></g></g><g data-cell-id="fDb5fomr2CojQYt8nf_2-4"><g><path d="M 1 144.4 L 442 144.4" fill="none" stroke="#000000" stroke-miterlimit="10" pointer-events="all" style="stroke: light-dark(rgb(0, 0, 0), rgb(255, 255, 255));"/></g></g><g data-cell-id="fDb5fomr2CojQYt8nf_2-5"><g><rect x="1" y="148.4" width="441" height="30" fill="none" stroke="none" pointer-events="all"/></g><g><g fill="#000000" font-family="Helvetica" font-size="12px" clip-path="url(#mx-clip-5-153-433-30-0)" style="fill: light-dark(rgb(0, 0, 0), rgb(255, 255, 255));"><text x="7" y="166.4">+__init__()</text></g></g></g><g data-cell-id="fDb5fomr2CojQYt8nf_2-6"><g><rect x="1" y="178.4" width="441" height="30" fill="none" stroke="none" pointer-events="all"/></g><g><g fill="#000000" font-family="Helvetica" font-size="12px" clip-path="url(#mx-clip-5-183-433-30-0)" style="fill: light-dark(rgb(0, 0, 0), rgb(255, 255, 255));"><text x="7" y="196.4">+new_task_service(task: Task)</text></g></g></g><g data-cell-id="fDb5fomr2CojQYt8nf_2-7"><g><rect x="1" y="208.4" width="441" height="30" fill="none" stroke="none" pointer-events="all"/></g><g><g fill="#000000" font-family="Helvetica" font-size="12px" clip-path="url(#mx-clip-5-213-433-30-0)" style="fill: light-dark(rgb(0, 0, 0), rgb(255, 255, 255));"><text x="7" y="226.4">+get_tasks_for_ui() : list&lt;tuple&gt;</text></g></g></g><g data-cell-id="fDb5fomr2CojQYt8nf_2-8"><g><rect x="1" y="238.4" width="441" height="30" fill="none" stroke="none" pointer-events="all"/></g><g><g fill="#000000" font-family="Helvetica" font-size="12px" clip-path="url(#mx-clip-5-243-433-30-0)" style="fill: light-dark(rgb(0, 0, 0), rgb(255, 255, 255));"><text x="7" y="256.4">+filter_tasks_service(status, tag, priority) : list&lt;Task&gt;</text></g></g></g><g data-cell-id="fDb5fomr2CojQYt8nf_2-9"><g><rect x="1" y="268.4" width="441" height="30" fill="none" stroke="none" pointer-events="all"/></g><g><g fill="#000000" font-family="Helvetica" font-size="12px" clip-path="url(#mx-clip-5-273-433-30-0)" style="fill: light-dark(rgb(0, 0, 0), rgb(255, 255, 255));"><text x="7" y="286.4">+update_task_service(task_id: int, new_data: dict)</text></g></g></g><g data-cell-id="fDb5fomr2CojQYt8nf_2-10"><g><rect x="1" y="298.4" width="441" height="30" fill="none" stroke="none" pointer-events="all"/></g><g><g fill="#000000" font-family="Helvetica" font-size="12px" clip-path="url(#mx-clip-5-303-433-30-0)" style="fill: light-dark(rgb(0, 0, 0), rgb(255, 255, 255));"><text x="7" y="316.4">+check_or_uncheck_task_service(task_id: int)</text></g></g></g><g data-cell-id="fDb5fomr2CojQYt8nf_2-11"><g><rect x="1" y="328.4" width="441" height="30" fill="none" stroke="none" pointer-events="all"/></g><g><g fill="#000000" font-family="Helvetica" font-size="12px" clip-path="url(#mx-clip-5-333-433-30-0)" style="fill: light-dark(rgb(0, 0, 0), rgb(255, 255, 255));"><text x="7" y="346.4">+get_task_by_id_service(task_id: int) : Task</text></g></g></g><g data-cell-id="fDb5fomr2CojQYt8nf_2-12"><g><rect x="1" y="358.4" width="441" height="30" fill="none" stroke="none" pointer-events="all"/></g><g><g fill="#000000" font-family="Helvetica" font-size="12px" clip-path="url(#mx-clip-5-363-433-30-0)" style="fill: light-dark(rgb(0, 0, 0), rgb(255, 255, 255));"><text x="7" y="376.4">+delete_task_service(task_id: int)</text></g></g></g></g><g data-cell-id="fDb5fomr2CojQYt8nf_2-13"><g><path d="M 879 57.73 L 879 26.53 Q 879 1 853.47 1 L 713.53 1 Q 688 1 688 26.53 L 688 57.73" fill="none" stroke="#000000" stroke-width="3" stroke-miterlimit="10" pointer-events="all" style="stroke: light-dark(rgb(0, 0, 0), rgb(255, 255, 255));"/><path d="M 688 57.73 L 688 192.2 Q 688 217.73 713.53 217.73 L 853.47 217.73 Q 879 217.73 879 192.2 L 879 57.73" fill="none" stroke="#000000" stroke-width="3" stroke-miterlimit="10" pointer-events="none" style="stroke: light-dark(rgb(0, 0, 0), rgb(255, 255, 255));"/><path d="M 688 57.73 L 879 57.73" fill="none" stroke="#000000" stroke-width="3" stroke-miterlimit="10" pointer-events="none" style="stroke: light-dark(rgb(0, 0, 0), rgb(255, 255, 255));"/></g><g><g fill="#000000" font-family="Helvetica" font-weight="bold" text-anchor="middle" font-size="12px" style="fill: light-dark(rgb(0, 0, 0), rgb(255, 255, 255));"><text x="783.5" y="19">&lt;&lt;Repository&gt;&gt;</text><text x="783.5" y="33">RepositoryDB</text></g></g><g data-cell-id="fDb5fomr2CojQYt8nf_2-14"><g><rect x="688" y="57.73" width="191" height="38" fill="none" stroke="none" pointer-events="all"/></g><g><g fill="#000000" font-family="Helvetica" font-size="12px" clip-path="url(#mx-clip-692-63-183-38-0)" style="fill: light-dark(rgb(0, 0, 0), rgb(255, 255, 255));"><text x="694" y="75.73">+...</text></g></g></g><g data-cell-id="fDb5fomr2CojQYt8nf_2-15"><g><path d="M 688 99.73 L 879 99.73" fill="none" stroke="#000000" stroke-miterlimit="10" pointer-events="all" style="stroke: light-dark(rgb(0, 0, 0), rgb(255, 255, 255));"/></g></g><g data-cell-id="fDb5fomr2CojQYt8nf_2-16"><g><rect x="688" y="103.73" width="191" height="38" fill="none" stroke="none" pointer-events="all"/></g><g><g fill="#000000" font-family="Helvetica" font-size="12px" clip-path="url(#mx-clip-692-109-183-38-0)" style="fill: light-dark(rgb(0, 0, 0), rgb(255, 255, 255));"><text x="694" y="121.73">+new_task()</text></g></g></g><g data-cell-id="fDb5fomr2CojQYt8nf_2-17"><g><rect x="688" y="141.73" width="191" height="38" fill="none" stroke="none" pointer-events="all"/></g><g><g fill="#000000" font-family="Helvetica" font-size="12px" clip-path="url(#mx-clip-692-147-183-38-0)" style="fill: light-dark(rgb(0, 0, 0), rgb(255, 255, 255));"><text x="694" y="159.73">+get_all_tasks()</text></g></g></g><g data-cell-id="fDb5fomr2CojQYt8nf_2-18"><g><rect x="688" y="179.73" width="191" height="38" fill="none" stroke="none" pointer-events="all"/></g><g><g fill="#000000" font-family="Helvetica" font-size="12px" clip-path="url(#mx-clip-692-185-183-38-0)" style="fill: light-dark(rgb(0, 0, 0), rgb(255, 255, 255));"><text x="694" y="197.73">+filter_tasks()</text></g></g></g></g><g data-cell-id="fDb5fomr2CojQYt8nf_2-19"><g><path d="M 855 322.2 L 855 291.84 Q 855 267 830.16 267 L 736.84 267 Q 712 267 712 291.84 L 712 322.2" fill="none" stroke="#000000" stroke-width="3" stroke-miterlimit="10" pointer-events="all" style="stroke: light-dark(rgb(0, 0, 0), rgb(255, 255, 255));"/><path d="M 712 322.2 L 712 426.36 Q 712 451.2 736.84 451.2 L 830.16 451.2 Q 855 451.2 855 426.36 L 855 322.2" fill="none" stroke="#000000" stroke-width="3" stroke-miterlimit="10" pointer-events="none" style="stroke: light-dark(rgb(0, 0, 0), rgb(255, 255, 255));"/><path d="M 712 322.2 L 855 322.2" fill="none" stroke="#000000" stroke-width="3" stroke-miterlimit="10" pointer-events="none" style="stroke: light-dark(rgb(0, 0, 0), rgb(255, 255, 255));"/></g><g><g fill="#000000" font-family="Helvetica" font-weight="bold" text-anchor="middle" font-size="12px" style="fill: light-dark(rgb(0, 0, 0), rgb(255, 255, 255));"><text x="783.5" y="285">&lt;&lt;Model&gt;&gt;</text><text x="783.5" y="299">Task</text></g></g><g data-cell-id="fDb5fomr2CojQYt8nf_2-20"><g><rect x="712" y="322.2" width="143" height="37" fill="none" stroke="none" pointer-events="all"/></g><g><g fill="#000000" font-family="Helvetica" font-size="12px" clip-path="url(#mx-clip-716-327-135-37-0)" style="fill: light-dark(rgb(0, 0, 0), rgb(255, 255, 255));"><text x="718" y="340.2">+id: int</text></g></g></g><g data-cell-id="fDb5fomr2CojQYt8nf_2-21"><g><rect x="712" y="359.2" width="143" height="37" fill="none" stroke="none" pointer-events="all"/></g><g><g fill="#000000" font-family="Helvetica" font-size="12px" clip-path="url(#mx-clip-716-364-135-37-0)" style="fill: light-dark(rgb(0, 0, 0), rgb(255, 255, 255));"><text x="718" y="377.2">+content: str</text></g></g></g><g data-cell-id="fDb5fomr2CojQYt8nf_2-22"><g><rect x="712" y="396.2" width="143" height="37" fill="none" stroke="none" pointer-events="all"/></g><g><g fill="#000000" font-family="Helvetica" font-size="12px" clip-path="url(#mx-clip-716-401-135-37-0)" style="fill: light-dark(rgb(0, 0, 0), rgb(255, 255, 255));"><text x="718" y="414.2">+...</text></g></g></g><g data-cell-id="fDb5fomr2CojQYt8nf_2-23"><g><path d="M 712 442.2 L 855 442.2" fill="none" stroke="#000000" stroke-miterlimit="10" pointer-events="all" style="stroke: light-dark(rgb(0, 0, 0), rgb(255, 255, 255));"/></g></g></g><g data-cell-id="fDb5fomr2CojQYt8nf_2-24"><g><path d="M 442 154.02 Q 565 109 685.76 109.36" fill="none" stroke="none" pointer-events="stroke"/><path d="M 673.86 115.82 L 686.88 109.36 L 673.9 102.82" fill="none" stroke="none" pointer-events="all"/><path d="M 442 154.02 C 527.59 124.48 604.7 107.64 685.76 109.36 M 442 154.02 C 526.33 124.5 609.55 111.93 685.76 109.36" fill="none" stroke="#000000" stroke-linejoin="round" stroke-linecap="round" stroke-miterlimit="10" pointer-events="stroke" style="stroke: light-dark(rgb(0, 0, 0), rgb(255, 255, 255));"/><path d="M 673.86 115.82 C 677.85 114.81 684.31 113.53 686.88 109.36 M 673.86 115.82 C 678.55 112.81 682.45 110.48 686.88 109.36 M 686.88 109.36 C 681.79 108.85 682.33 109.33 673.9 102.82 M 686.88 109.36 C 681.96 107.11 679.1 106.52 673.9 102.82" fill="none" stroke="#000000" stroke-linejoin="round" stroke-linecap="round" stroke-miterlimit="10" pointer-events="all" style="stroke: light-dark(rgb(0, 0, 0), rgb(255, 255, 255));"/></g><g><g fill="#000000" font-family="Helvetica" text-anchor="middle" font-size="11px" style="fill: light-dark(rgb(0, 0, 0), rgb(255, 255, 255));"><text x="561.26" y="114.87">"usa para acceder a datos"</text></g></g></g><g data-cell-id="fDb5fomr2CojQYt8nf_2-25"><g><path d="M 442 314.38 Q 565 363 709.76 359.16" fill="none" stroke="none" pointer-events="stroke"/><path d="M 698.06 365.97 L 710.88 359.13 L 697.71 352.98" fill="none" stroke="none" pointer-events="all"/><path d="M 442 314.38 C 527.59 347.95 609.51 357.96 709.76 359.16 M 442 314.38 C 523.94 351.15 615.62 358.64 709.76 359.16" fill="none" stroke="#000000" stroke-linejoin="round" stroke-linecap="round" stroke-miterlimit="10" pointer-events="stroke" style="stroke: light-dark(rgb(0, 0, 0), rgb(255, 255, 255));"/><path d="M 698.06 365.97 C 700.28 363.51 710.77 362.37 710.88 359.13 M 698.06 365.97 C 699.85 363.85 704.33 364.03 710.88 359.13 M 710.88 359.13 C 710.65 355.68 703.22 354.08 697.71 352.98 M 710.88 359.13 C 707.99 356.95 703.8 356.31 697.71 352.98" fill="none" stroke="#000000" stroke-linejoin="round" stroke-linecap="round" stroke-miterlimit="10" pointer-events="all" style="stroke: light-dark(rgb(0, 0, 0), rgb(255, 255, 255));"/></g><g><g fill="#000000" font-family="Helvetica" text-anchor="middle" font-size="11px" style="fill: light-dark(rgb(0, 0, 0), rgb(255, 255, 255));"><text x="572.74" y="367.29">"opera con"</text></g></g></g></g></g></g></svg>