<?xml version="1.0" encoding="UTF-8"?>
<!DOCTYPE svg PUBLIC "-//W3C//DTD SVG 1.1//EN" "http://www.w3.org/Graphics/SVG/1.1/DTD/svg11.dtd">
<svg xmlns="http://www.w3.org/2000/svg" style="background: transparent; background-color: transparent; color-scheme: light dark;" xmlns:xlink="http://www.w3.org/1999/xlink" version="1.1" width="936px" height="1285px" viewBox="-0.5 -0.5 936 1285"><defs><clipPath id="mx-clip-5-637-93-47-0"><rect x="5" y="637" width="93" height="47"/></clipPath><clipPath id="mx-clip-233-470-293-29-0"><rect x="233" y="470" width="293" height="29"/></clipPath><clipPath id="mx-clip-233-499-293-29-0"><rect x="233" y="499" width="293" height="29"/></clipPath><clipPath id="mx-clip-233-528-293-29-0"><rect x="233" y="528" width="293" height="29"/></clipPath><clipPath id="mx-clip-233-565-293-29-0"><rect x="233" y="565" width="293" height="29"/></clipPath><clipPath id="mx-clip-233-594-293-29-0"><rect x="233" y="594" width="293" height="29"/></clipPath><clipPath id="mx-clip-233-623-293-29-0"><rect x="233" y="623" width="293" height="29"/></clipPath><clipPath id="mx-clip-233-652-293-29-0"><rect x="233" y="652" width="293" height="29"/></clipPath><clipPath id="mx-clip-233-681-293-29-0"><rect x="233" y="681" width="293" height="29"/></clipPath><clipPath id="mx-clip-233-710-293-29-0"><rect x="233" y="710" width="293" height="29"/></clipPath><clipPath id="mx-clip-233-739-293-29-0"><rect x="233" y="739" width="293" height="29"/></clipPath><clipPath id="mx-clip-233-768-293-29-0"><rect x="233" y="768" width="293" height="29"/></clipPath><clipPath id="mx-clip-233-797-293-29-0"><rect x="233" y="797" width="293" height="29"/></clipPath><clipPath id="mx-clip-706-46-224-40-0"><rect x="706" y="46" width="224" height="40"/></clipPath><clipPath id="mx-clip-706-94-224-40-0"><rect x="706" y="94" width="224" height="40"/></clipPath><clipPath id="mx-clip-706-134-224-40-0"><rect x="706" y="134" width="224" height="40"/></clipPath><clipPath id="mx-clip-750-284-135-40-0"><rect x="750" y="284" width="135" height="40"/></clipPath><clipPath id="mx-clip-750-324-135-40-0"><rect x="750" y="324" width="135" height="40"/></clipPath></defs><g><g data-cell-id="0"><g data-cell-id="1"><g data-cell-id="xggSwS1l_uX2BKRk23sH-1"><g><path d="M 102 624 L 102 584.95 Q 102 553 70.05 553 L 32.95 553 Q 1 553 1 584.95 L 1 624" fill="none" stroke="#000000" stroke-width="3" stroke-miterlimit="10" pointer-events="all" style="stroke: light-dark(rgb(0, 0, 0), rgb(255, 255, 255));"/><path d="M 1 624 L 1 647.05 Q 1 679 32.95 679 L 70.05 679 Q 102 679 102 647.05 L 102 624" fill="none" stroke="#000000" stroke-width="3" stroke-miterlimit="10" pointer-events="none" style="stroke: light-dark(rgb(0, 0, 0), rgb(255, 255, 255));"/><path d="M 1 624 L 102 624" fill="none" stroke="#000000" stroke-width="3" stroke-miterlimit="10" pointer-events="none" style="stroke: light-dark(rgb(0, 0, 0), rgb(255, 255, 255));"/></g><g><g fill="#000000" font-family="Helvetica" font-weight="bold" text-anchor="middle" font-size="12px" style="fill: light-dark(rgb(0, 0, 0), rgb(255, 255, 255));"><text x="51.5" y="571">&lt;&lt;Textual&gt;&gt;</text><text x="51.5" y="585">App</text></g></g><g data-cell-id="xggSwS1l_uX2BKRk23sH-2"><g><path d="M 1 628 L 102 628" fill="none" stroke="#000000" stroke-miterlimit="10" pointer-events="all" style="stroke: light-dark(rgb(0, 0, 0), rgb(255, 255, 255));"/></g></g><g data-cell-id="xggSwS1l_uX2BKRk23sH-3"><g><rect x="1" y="632" width="101" height="47" fill="none" stroke="none" pointer-events="all"/></g><g><g fill="#000000" font-family="Helvetica" font-size="12px" clip-path="url(#mx-clip-5-637-93-47-0)" style="fill: light-dark(rgb(0, 0, 0), rgb(255, 255, 255));"><text x="7" y="650">+run()</text></g></g></g></g><g data-cell-id="xggSwS1l_uX2BKRk23sH-4"><g><path d="M 530 464.92 L 530 449.02 Q 530 436 516.98 436 L 242.02 436 Q 229 436 229 449.02 L 229 464.92" fill="none" stroke="#000000" stroke-width="3" stroke-miterlimit="10" pointer-events="all" style="stroke: light-dark(rgb(0, 0, 0), rgb(255, 255, 255));"/><path d="M 229 464.92 L 229 807.91 Q 229 820.92 242.02 820.92 L 516.98 820.92 Q 530 820.92 530 807.91 L 530 464.92" fill="none" stroke="#000000" stroke-width="3" stroke-miterlimit="10" pointer-events="none" style="stroke: light-dark(rgb(0, 0, 0), rgb(255, 255, 255));"/><path d="M 229 464.92 L 530 464.92" fill="none" stroke="#000000" stroke-width="3" stroke-miterlimit="10" pointer-events="none" style="stroke: light-dark(rgb(0, 0, 0), rgb(255, 255, 255));"/></g><g><g fill="#000000" font-family="Helvetica" font-weight="bold" text-anchor="middle" font-size="12px" style="fill: light-dark(rgb(0, 0, 0), rgb(255, 255, 255));"><text x="379.5" y="454">Interface</text></g></g><g data-cell-id="xggSwS1l_uX2BKRk23sH-5"><g><rect x="229" y="464.92" width="301" height="29" fill="none" stroke="none" pointer-events="all"/></g><g><g fill="#000000" font-family="Helvetica" font-size="12px" clip-path="url(#mx-clip-233-470-293-29-0)" style="fill: light-dark(rgb(0, 0, 0), rgb(255, 255, 255));"><text x="235" y="482.92">+List BINDINGS</text></g></g></g><g data-cell-id="xggSwS1l_uX2BKRk23sH-6"><g><rect x="229" y="493.92" width="301" height="29" fill="none" stroke="none" pointer-events="all"/></g><g><g fill="#000000" font-family="Helvetica" font-size="12px" clip-path="url(#mx-clip-233-499-293-29-0)" style="fill: light-dark(rgb(0, 0, 0), rgb(255, 255, 255));"><text x="235" y="511.92">+str CSS_PATH</text></g></g></g><g data-cell-id="xggSwS1l_uX2BKRk23sH-7"><g><rect x="229" y="522.92" width="301" height="29" fill="none" stroke="none" pointer-events="all"/></g><g><g fill="#000000" font-family="Helvetica" font-size="12px" clip-path="url(#mx-clip-233-528-293-29-0)" style="fill: light-dark(rgb(0, 0, 0), rgb(255, 255, 255));"><text x="235" y="540.92">+str TITLE</text></g></g></g><g data-cell-id="xggSwS1l_uX2BKRk23sH-8"><g><path d="M 229 555.92 L 530 555.92" fill="none" stroke="#000000" stroke-miterlimit="10" pointer-events="all" style="stroke: light-dark(rgb(0, 0, 0), rgb(255, 255, 255));"/></g></g><g data-cell-id="xggSwS1l_uX2BKRk23sH-9"><g><rect x="229" y="559.92" width="301" height="29" fill="none" stroke="none" pointer-events="all"/></g><g><g fill="#000000" font-family="Helvetica" font-size="12px" clip-path="url(#mx-clip-233-565-293-29-0)" style="fill: light-dark(rgb(0, 0, 0), rgb(255, 255, 255));"><text x="235" y="577.92">+compose()</text></g></g></g><g data-cell-id="xggSwS1l_uX2BKRk23sH-10"><g><rect x="229" y="588.92" width="301" height="29" fill="none" stroke="none" pointer-events="all"/></g><g><g fill="#000000" font-family="Helvetica" font-size="12px" clip-path="url(#mx-clip-233-594-293-29-0)" style="fill: light-dark(rgb(0, 0, 0), rgb(255, 255, 255));"><text x="235" y="606.92">+on_mount()</text></g></g></g><g data-cell-id="xggSwS1l_uX2BKRk23sH-11"><g><rect x="229" y="617.92" width="301" height="29" fill="none" stroke="none" pointer-events="all"/></g><g><g fill="#000000" font-family="Helvetica" font-size="12px" clip-path="url(#mx-clip-233-623-293-29-0)" style="fill: light-dark(rgb(0, 0, 0), rgb(255, 255, 255));"><text x="235" y="635.92">+action_add_task()</text></g></g></g><g data-cell-id="xggSwS1l_uX2BKRk23sH-12"><g><rect x="229" y="646.92" width="301" height="29" fill="none" stroke="none" pointer-events="all"/></g><g><g fill="#000000" font-family="Helvetica" font-size="12px" clip-path="url(#mx-clip-233-652-293-29-0)" style="fill: light-dark(rgb(0, 0, 0), rgb(255, 255, 255));"><text x="235" y="664.92">+action_edit_task()</text></g></g></g><g data-cell-id="xggSwS1l_uX2BKRk23sH-13"><g><rect x="229" y="675.92" width="301" height="29" fill="none" stroke="none" pointer-events="all"/></g><g><g fill="#000000" font-family="Helvetica" font-size="12px" clip-path="url(#mx-clip-233-681-293-29-0)" style="fill: light-dark(rgb(0, 0, 0), rgb(255, 255, 255));"><text x="235" y="693.92">+action_delete_task()</text></g></g></g><g data-cell-id="xggSwS1l_uX2BKRk23sH-14"><g><rect x="229" y="704.92" width="301" height="29" fill="none" stroke="none" pointer-events="all"/></g><g><g fill="#000000" font-family="Helvetica" font-size="12px" clip-path="url(#mx-clip-233-710-293-29-0)" style="fill: light-dark(rgb(0, 0, 0), rgb(255, 255, 255));"><text x="235" y="722.92">+action_filter_tasks()</text></g></g></g><g data-cell-id="xggSwS1l_uX2BKRk23sH-15"><g><rect x="229" y="733.92" width="301" height="29" fill="none" stroke="none" pointer-events="all"/></g><g><g fill="#000000" font-family="Helvetica" font-size="12px" clip-path="url(#mx-clip-233-739-293-29-0)" style="fill: light-dark(rgb(0, 0, 0), rgb(255, 255, 255));"><text x="235" y="751.92">+action_check_or_uncheck_task()</text></g></g></g><g data-cell-id="xggSwS1l_uX2BKRk23sH-16"><g><rect x="229" y="762.92" width="301" height="29" fill="none" stroke="none" pointer-events="all"/></g><g><g fill="#000000" font-family="Helvetica" font-size="12px" clip-path="url(#mx-clip-233-768-293-29-0)" style="fill: light-dark(rgb(0, 0, 0), rgb(255, 255, 255));"><text x="235" y="780.92">+action_view_details()</text></g></g></g><g data-cell-id="xggSwS1l_uX2BKRk23sH-17"><g><rect x="229" y="791.92" width="301" height="29" fill="none" stroke="none" pointer-events="all"/></g><g><g fill="#000000" font-family="Helvetica" font-size="12px" clip-path="url(#mx-clip-233-797-293-29-0)" style="fill: light-dark(rgb(0, 0, 0), rgb(255, 255, 255));"><text x="235" y="809.92">+action_reset_filters()</text></g></g></g></g><g data-cell-id="xggSwS1l_uX2BKRk23sH-18"><g><path d="M 934 41 L 934 19 Q 934 1 916 1 L 720 1 Q 702 1 702 19 L 702 41" fill="none" stroke="#000000" stroke-width="3" stroke-miterlimit="10" pointer-events="all" style="stroke: light-dark(rgb(0, 0, 0), rgb(255, 255, 255));"/><path d="M 702 41 L 702 151 Q 702 169 720 169 L 916 169 Q 934 169 934 151 L 934 41" fill="none" stroke="#000000" stroke-width="3" stroke-miterlimit="10" pointer-events="none" style="stroke: light-dark(rgb(0, 0, 0), rgb(255, 255, 255));"/><path d="M 702 41 L 934 41" fill="none" stroke="#000000" stroke-width="3" stroke-miterlimit="10" pointer-events="none" style="stroke: light-dark(rgb(0, 0, 0), rgb(255, 255, 255));"/></g><g><g fill="#000000" font-family="Helvetica" font-weight="bold" text-anchor="middle" font-size="12px" style="fill: light-dark(rgb(0, 0, 0), rgb(255, 255, 255));"><text x="818" y="19">TaskService</text></g></g><g data-cell-id="xggSwS1l_uX2BKRk23sH-19"><g><rect x="702" y="41" width="232" height="40" fill="none" stroke="none" pointer-events="all"/></g><g><g fill="#000000" font-family="Helvetica" font-size="12px" clip-path="url(#mx-clip-706-46-224-40-0)" style="fill: light-dark(rgb(0, 0, 0), rgb(255, 255, 255));"><text x="708" y="59">+...</text></g></g></g><g data-cell-id="xggSwS1l_uX2BKRk23sH-20"><g><path d="M 702 85 L 934 85" fill="none" stroke="#000000" stroke-miterlimit="10" pointer-events="all" style="stroke: light-dark(rgb(0, 0, 0), rgb(255, 255, 255));"/></g></g><g data-cell-id="xggSwS1l_uX2BKRk23sH-21"><g><rect x="702" y="89" width="232" height="40" fill="none" stroke="none" pointer-events="all"/></g><g><g fill="#000000" font-family="Helvetica" font-size="12px" clip-path="url(#mx-clip-706-94-224-40-0)" style="fill: light-dark(rgb(0, 0, 0), rgb(255, 255, 255));"><text x="708" y="107">+new_task_service()</text></g></g></g><g data-cell-id="xggSwS1l_uX2BKRk23sH-22"><g><rect x="702" y="129" width="232" height="40" fill="none" stroke="none" pointer-events="all"/></g><g><g fill="#000000" font-family="Helvetica" font-size="12px" clip-path="url(#mx-clip-706-134-224-40-0)" style="fill: light-dark(rgb(0, 0, 0), rgb(255, 255, 255));"><text x="708" y="147">+delete_task_service()</text></g></g></g></g><g data-cell-id="xggSwS1l_uX2BKRk23sH-23"><g><path d="M 889 279 L 889 246 Q 889 219 862 219 L 773 219 Q 746 219 746 246 L 746 279" fill="none" stroke="#000000" stroke-width="3" stroke-miterlimit="10" pointer-events="all" style="stroke: light-dark(rgb(0, 0, 0), rgb(255, 255, 255));"/><path d="M 746 279 L 746 352 Q 746 379 773 379 L 862 379 Q 889 379 889 352 L 889 279" fill="none" stroke="#000000" stroke-width="3" stroke-miterlimit="10" pointer-events="none" style="stroke: light-dark(rgb(0, 0, 0), rgb(255, 255, 255));"/><path d="M 746 279 L 889 279" fill="none" stroke="#000000" stroke-width="3" stroke-miterlimit="10" pointer-events="none" style="stroke: light-dark(rgb(0, 0, 0), rgb(255, 255, 255));"/></g><g><g fill="#000000" font-family="Helvetica" font-weight="bold" text-anchor="middle" font-size="12px" style="fill: light-dark(rgb(0, 0, 0), rgb(255, 255, 255));"><text x="817.5" y="237">&lt;&lt;Model&gt;&gt;</text><text x="817.5" y="251">Task</text></g></g><g data-cell-id="xggSwS1l_uX2BKRk23sH-24"><g><rect x="746" y="279" width="143" height="40" fill="none" stroke="none" pointer-events="all"/></g><g><g fill="#000000" font-family="Helvetica" font-size="12px" clip-path="url(#mx-clip-750-284-135-40-0)" style="fill: light-dark(rgb(0, 0, 0), rgb(255, 255, 255));"><text x="752" y="297">+id: int</text></g></g></g><g data-cell-id="xggSwS1l_uX2BKRk23sH-25"><g><rect x="746" y="319" width="143" height="40" fill="none" stroke="none" pointer-events="all"/></g><g><g fill="#000000" font-family="Helvetica" font-size="12px" clip-path="url(#mx-clip-750-324-135-40-0)" style="fill: light-dark(rgb(0, 0, 0), rgb(255, 255, 255));"><text x="752" y="337">+content: str</text></g></g></g><g data-cell-id="xggSwS1l_uX2BKRk23sH-26"><g><path d="M 746 369 L 889 369" fill="none" stroke="#000000" stroke-miterlimit="10" pointer-events="all" style="stroke: light-dark(rgb(0, 0, 0), rgb(255, 255, 255));"/></g></g></g><g data-cell-id="xggSwS1l_uX2BKRk23sH-27"><g><path d="M 453 930 L 453 890 Q 453 870 433 870 L 325 870 Q 305 870 305 890 L 305 930" fill="none" stroke="#000000" stroke-width="3" stroke-miterlimit="10" pointer-events="all" style="stroke: light-dark(rgb(0, 0, 0), rgb(255, 255, 255));"/><path d="M 305 930 L 305 930 Q 305 950 325 950 L 433 950 Q 453 950 453 930 L 453 930" fill="none" stroke="#000000" stroke-width="3" stroke-miterlimit="10" pointer-events="none" style="stroke: light-dark(rgb(0, 0, 0), rgb(255, 255, 255));"/><path d="M 305 930 L 453 930" fill="none" stroke="#000000" stroke-width="3" stroke-miterlimit="10" pointer-events="none" style="stroke: light-dark(rgb(0, 0, 0), rgb(255, 255, 255));"/></g><g><g fill="#000000" font-family="Helvetica" font-weight="bold" text-anchor="middle" font-size="12px" style="fill: light-dark(rgb(0, 0, 0), rgb(255, 255, 255));"><text x="379" y="888">&lt;&lt;Textual Screen&gt;&gt;</text><text x="379" y="902">ModalScreen</text></g></g><g data-cell-id="xggSwS1l_uX2BKRk23sH-28"><g><path d="M 305 940 L 453 940" fill="none" stroke="#000000" stroke-miterlimit="10" pointer-events="all" style="stroke: light-dark(rgb(0, 0, 0), rgb(255, 255, 255));"/></g></g></g><g data-cell-id="xggSwS1l_uX2BKRk23sH-29"><g><path d="M 889 475 L 889 454.1 Q 889 437 871.9 437 L 762.1 437 Q 745 437 745 454.1 L 745 475" fill="none" stroke="#000000" stroke-width="3" stroke-miterlimit="10" pointer-events="all" style="stroke: light-dark(rgb(0, 0, 0), rgb(255, 255, 255));"/><path d="M 745 475 L 745 476.9 Q 745 494 762.1 494 L 871.9 494 Q 889 494 889 476.9 L 889 475" fill="none" stroke="#000000" stroke-width="3" stroke-miterlimit="10" pointer-events="none" style="stroke: light-dark(rgb(0, 0, 0), rgb(255, 255, 255));"/><path d="M 745 475 L 889 475" fill="none" stroke="#000000" stroke-width="3" stroke-miterlimit="10" pointer-events="none" style="stroke: light-dark(rgb(0, 0, 0), rgb(255, 255, 255));"/></g><g><g fill="#000000" font-family="Helvetica" font-weight="bold" text-anchor="middle" font-size="12px" style="fill: light-dark(rgb(0, 0, 0), rgb(255, 255, 255));"><text x="817" y="455">AddTaskScreen</text></g></g><g data-cell-id="xggSwS1l_uX2BKRk23sH-30"><g><path d="M 745 484.5 L 889 484.5" fill="none" stroke="#000000" stroke-miterlimit="10" pointer-events="all" style="stroke: light-dark(rgb(0, 0, 0), rgb(255, 255, 255));"/></g></g></g><g data-cell-id="xggSwS1l_uX2BKRk23sH-31"><g><path d="M 878 609 L 878 588.1 Q 878 571 860.9 571 L 774.1 571 Q 757 571 757 588.1 L 757 609" fill="none" stroke="#000000" stroke-width="3" stroke-miterlimit="10" pointer-events="all" style="stroke: light-dark(rgb(0, 0, 0), rgb(255, 255, 255));"/><path d="M 757 609 L 757 610.9 Q 757 628 774.1 628 L 860.9 628 Q 878 628 878 610.9 L 878 609" fill="none" stroke="#000000" stroke-width="3" stroke-miterlimit="10" pointer-events="none" style="stroke: light-dark(rgb(0, 0, 0), rgb(255, 255, 255));"/><path d="M 757 609 L 878 609" fill="none" stroke="#000000" stroke-width="3" stroke-miterlimit="10" pointer-events="none" style="stroke: light-dark(rgb(0, 0, 0), rgb(255, 255, 255));"/></g><g><g fill="#000000" font-family="Helvetica" font-weight="bold" text-anchor="middle" font-size="12px" style="fill: light-dark(rgb(0, 0, 0), rgb(255, 255, 255));"><text x="817.5" y="589">AskIdScreen</text></g></g><g data-cell-id="xggSwS1l_uX2BKRk23sH-32"><g><path d="M 757 618.5 L 878 618.5" fill="none" stroke="#000000" stroke-miterlimit="10" pointer-events="all" style="stroke: light-dark(rgb(0, 0, 0), rgb(255, 255, 255));"/></g></g></g><g data-cell-id="xggSwS1l_uX2BKRk23sH-33"><g><path d="M 877 839 L 877 818.1 Q 877 801 859.9 801 L 775.1 801 Q 758 801 758 818.1 L 758 839" fill="none" stroke="#000000" stroke-width="3" stroke-miterlimit="10" pointer-events="all" style="stroke: light-dark(rgb(0, 0, 0), rgb(255, 255, 255));"/><path d="M 758 839 L 758 840.9 Q 758 858 775.1 858 L 859.9 858 Q 877 858 877 840.9 L 877 839" fill="none" stroke="#000000" stroke-width="3" stroke-miterlimit="10" pointer-events="none" style="stroke: light-dark(rgb(0, 0, 0), rgb(255, 255, 255));"/><path d="M 758 839 L 877 839" fill="none" stroke="#000000" stroke-width="3" stroke-miterlimit="10" pointer-events="none" style="stroke: light-dark(rgb(0, 0, 0), rgb(255, 255, 255));"/></g><g><g fill="#000000" font-family="Helvetica" font-weight="bold" text-anchor="middle" font-size="12px" style="fill: light-dark(rgb(0, 0, 0), rgb(255, 255, 255));"><text x="817.5" y="819">AskTaskEdit</text></g></g><g data-cell-id="xggSwS1l_uX2BKRk23sH-34"><g><path d="M 758 848.5 L 877 848.5" fill="none" stroke="#000000" stroke-miterlimit="10" pointer-events="all" style="stroke: light-dark(rgb(0, 0, 0), rgb(255, 255, 255));"/></g></g></g><g data-cell-id="xggSwS1l_uX2BKRk23sH-35"><g><path d="M 898 973 L 898 952.1 Q 898 935 880.9 935 L 754.1 935 Q 737 935 737 952.1 L 737 973" fill="none" stroke="#000000" stroke-width="3" stroke-miterlimit="10" pointer-events="all" style="stroke: light-dark(rgb(0, 0, 0), rgb(255, 255, 255));"/><path d="M 737 973 L 737 974.9 Q 737 992 754.1 992 L 880.9 992 Q 898 992 898 974.9 L 898 973" fill="none" stroke="#000000" stroke-width="3" stroke-miterlimit="10" pointer-events="none" style="stroke: light-dark(rgb(0, 0, 0), rgb(255, 255, 255));"/><path d="M 737 973 L 898 973" fill="none" stroke="#000000" stroke-width="3" stroke-miterlimit="10" pointer-events="none" style="stroke: light-dark(rgb(0, 0, 0), rgb(255, 255, 255));"/></g><g><g fill="#000000" font-family="Helvetica" font-weight="bold" text-anchor="middle" font-size="12px" style="fill: light-dark(rgb(0, 0, 0), rgb(255, 255, 255));"><text x="817.5" y="953">FilterTasksScreen</text></g></g><g data-cell-id="xggSwS1l_uX2BKRk23sH-36"><g><path d="M 737 982.5 L 898 982.5" fill="none" stroke="#000000" stroke-miterlimit="10" pointer-events="all" style="stroke: light-dark(rgb(0, 0, 0), rgb(255, 255, 255));"/></g></g></g><g data-cell-id="xggSwS1l_uX2BKRk23sH-37"><g><path d="M 900 1107 L 900 1086.1 Q 900 1069 882.9 1069 L 751.1 1069 Q 734 1069 734 1086.1 L 734 1107" fill="none" stroke="#000000" stroke-width="3" stroke-miterlimit="10" pointer-events="all" style="stroke: light-dark(rgb(0, 0, 0), rgb(255, 255, 255));"/><path d="M 734 1107 L 734 1108.9 Q 734 1126 751.1 1126 L 882.9 1126 Q 900 1126 900 1108.9 L 900 1107" fill="none" stroke="#000000" stroke-width="3" stroke-miterlimit="10" pointer-events="none" style="stroke: light-dark(rgb(0, 0, 0), rgb(255, 255, 255));"/><path d="M 734 1107 L 900 1107" fill="none" stroke="#000000" stroke-width="3" stroke-miterlimit="10" pointer-events="none" style="stroke: light-dark(rgb(0, 0, 0), rgb(255, 255, 255));"/></g><g><g fill="#000000" font-family="Helvetica" font-weight="bold" text-anchor="middle" font-size="12px" style="fill: light-dark(rgb(0, 0, 0), rgb(255, 255, 255));"><text x="817" y="1087">ViewDetailsScreen</text></g></g><g data-cell-id="xggSwS1l_uX2BKRk23sH-38"><g><path d="M 734 1116.5 L 900 1116.5" fill="none" stroke="#000000" stroke-miterlimit="10" pointer-events="all" style="stroke: light-dark(rgb(0, 0, 0), rgb(255, 255, 255));"/></g></g></g><g data-cell-id="xggSwS1l_uX2BKRk23sH-39"><g><path d="M 891 1263 L 891 1223 Q 891 1203 871 1203 L 764 1203 Q 744 1203 744 1223 L 744 1263" fill="none" stroke="#000000" stroke-width="3" stroke-miterlimit="10" pointer-events="all" style="stroke: light-dark(rgb(0, 0, 0), rgb(255, 255, 255));"/><path d="M 744 1263 L 744 1263 Q 744 1283 764 1283 L 871 1283 Q 891 1283 891 1263 L 891 1263" fill="none" stroke="#000000" stroke-width="3" stroke-miterlimit="10" pointer-events="none" style="stroke: light-dark(rgb(0, 0, 0), rgb(255, 255, 255));"/><path d="M 744 1263 L 891 1263" fill="none" stroke="#000000" stroke-width="3" stroke-miterlimit="10" pointer-events="none" style="stroke: light-dark(rgb(0, 0, 0), rgb(255, 255, 255));"/></g><g><g fill="#000000" font-family="Helvetica" font-weight="bold" text-anchor="middle" font-size="12px" style="fill: light-dark(rgb(0, 0, 0), rgb(255, 255, 255));"><text x="817.5" y="1221">&lt;&lt;decorator&gt;&gt;</text><text x="817.5" y="1235">require_valid_id</text></g></g><g data-cell-id="xggSwS1l_uX2BKRk23sH-40"><g><path d="M 744 1273 L 891 1273" fill="none" stroke="#000000" stroke-miterlimit="10" pointer-events="all" style="stroke: light-dark(rgb(0, 0, 0), rgb(255, 255, 255));"/></g></g></g><g data-cell-id="xggSwS1l_uX2BKRk23sH-41"><g><path d="M 120.03 617.77 Q 120.03 617.77 229 628.46" fill="none" stroke="none" pointer-events="stroke"/><path d="M 103.11 616.11 L 120.86 609.31 L 119.2 626.23 Z" fill="none" stroke="none" pointer-events="all"/><path d="M 120.03 617.77 C 121.22 614.08 152.71 625.32 229 628.46 M 120.03 617.77 C 120.28 617.87 153.26 617.15 229 628.46" fill="none" stroke="#000000" stroke-linejoin="round" stroke-linecap="round" stroke-miterlimit="10" pointer-events="stroke" style="stroke: light-dark(rgb(0, 0, 0), rgb(255, 255, 255));"/><path d="M 103.11 616.11 C 112.87 614.39 115.02 609.39 120.86 609.31 M 103.11 616.11 C 105.24 614.41 110.01 611.47 120.86 609.31 M 120.86 609.31 C 122.47 611.28 121.38 618.15 119.2 626.23 M 120.86 609.31 C 121.32 612.42 118.72 615.99 119.2 626.23 M 119.2 626.23 C 115.17 624.4 108.62 621.75 103.11 616.11 M 119.2 626.23 C 113.8 621.96 108.22 617.86 103.11 616.11" fill="none" stroke="#000000" stroke-linejoin="round" stroke-linecap="round" stroke-miterlimit="10" pointer-events="all" style="stroke: light-dark(rgb(0, 0, 0), rgb(255, 255, 255));"/></g><g><g fill="#000000" font-family="Helvetica" text-anchor="middle" font-size="11px" style="fill: light-dark(rgb(0, 0, 0), rgb(255, 255, 255));"><text x="165.69" y="626.75">hereda de</text></g></g></g><g data-cell-id="xggSwS1l_uX2BKRk23sH-42"><g><path d="M 463.78 436 Q 615 85 699.76 85" fill="none" stroke="none" pointer-events="stroke"/><path d="M 687.88 91.5 L 700.88 85 L 687.88 78.5" fill="none" stroke="none" pointer-events="all"/><path d="M 463.78 436 C 565.79 198.99 644.42 86.7 699.76 85 M 463.78 436 C 562.46 205.96 647.44 84.13 699.76 85" fill="none" stroke="#000000" stroke-linejoin="round" stroke-linecap="round" stroke-miterlimit="10" pointer-events="stroke" style="stroke: light-dark(rgb(0, 0, 0), rgb(255, 255, 255));"/><path d="M 687.88 91.5 C 693.5 87.93 699.05 89.78 700.88 85 M 687.88 91.5 C 692.04 90.15 695.89 88.93 700.88 85 M 700.88 85 C 698.5 84.52 692.53 82.93 687.88 78.5 M 700.88 85 C 697.42 82.18 694.02 82.9 687.88 78.5" fill="none" stroke="#000000" stroke-linejoin="round" stroke-linecap="round" stroke-miterlimit="10" pointer-events="all" style="stroke: light-dark(rgb(0, 0, 0), rgb(255, 255, 255));"/></g><g><g fill="#000000" font-family="Helvetica" text-anchor="middle" font-size="11px" style="fill: light-dark(rgb(0, 0, 0), rgb(255, 255, 255));"><text x="556.76" y="224.68">usa</text></g></g></g><g data-cell-id="xggSwS1l_uX2BKRk23sH-43"><g><path d="M 517.96 436 Q 615 303 743.77 299.07" fill="none" stroke="none" pointer-events="stroke"/><path d="M 732.09 305.93 L 744.88 299.03 L 731.69 292.93" fill="none" stroke="none" pointer-events="all"/><path d="M 517.96 436 C 583.85 345.01 655.9 301.1 743.77 299.07 M 517.96 436 C 578.13 345.96 660.18 304.13 743.77 299.07" fill="none" stroke="#000000" stroke-linejoin="round" stroke-linecap="round" stroke-miterlimit="10" pointer-events="stroke" style="stroke: light-dark(rgb(0, 0, 0), rgb(255, 255, 255));"/><path d="M 732.09 305.93 C 735.96 300.93 739.74 302.94 744.88 299.03 M 732.09 305.93 C 735.93 304.12 740.02 301.16 744.88 299.03 M 744.88 299.03 C 741.53 295.65 739.2 297.84 731.69 292.93 M 744.88 299.03 C 740.83 297.94 733.48 294.45 731.69 292.93" fill="none" stroke="#000000" stroke-linejoin="round" stroke-linecap="round" stroke-miterlimit="10" pointer-events="all" style="stroke: light-dark(rgb(0, 0, 0), rgb(255, 255, 255));"/></g><g><g fill="#000000" font-family="Helvetica" text-anchor="middle" font-size="11px" style="fill: light-dark(rgb(0, 0, 0), rgb(255, 255, 255));"><text x="605.19" y="320.94">maneja datos de</text></g></g></g><g data-cell-id="xggSwS1l_uX2BKRk23sH-44"><g><path d="M 530 489.89 Q 615 412 742.85 448.36" fill="none" stroke="none" pointer-events="stroke"/><path d="M 729.64 451.36 L 743.92 448.66 L 733.2 438.86" fill="none" stroke="none" pointer-events="all"/><path d="M 530 489.89 C 587.86 436.32 660.4 421.25 742.85 448.36 M 530 489.89 C 588.96 440.45 657.95 420.68 742.85 448.36" fill="none" stroke="#000000" stroke-linejoin="round" stroke-linecap="round" stroke-miterlimit="10" pointer-events="stroke" style="stroke: light-dark(rgb(0, 0, 0), rgb(255, 255, 255));"/><path d="M 729.64 451.36 C 732.28 451.72 740.65 449.59 743.92 448.66 M 729.64 451.36 C 733.93 451.52 736.11 449.25 743.92 448.66 M 743.92 448.66 C 740.61 446.77 737.04 439.67 733.2 438.86 M 743.92 448.66 C 740.28 446.15 735.46 441.13 733.2 438.86" fill="none" stroke="#000000" stroke-linejoin="round" stroke-linecap="round" stroke-miterlimit="10" pointer-events="all" style="stroke: light-dark(rgb(0, 0, 0), rgb(255, 255, 255));"/></g><g><g fill="#000000" font-family="Helvetica" text-anchor="middle" font-size="11px" style="fill: light-dark(rgb(0, 0, 0), rgb(255, 255, 255));"><text x="624.34" y="419.16">muestra</text></g></g></g><g data-cell-id="xggSwS1l_uX2BKRk23sH-45"><g><path d="M 530 586.12 Q 615 561 754.81 588.8" fill="none" stroke="none" pointer-events="stroke"/><path d="M 741.89 592.86 L 755.9 589.02 L 744.42 580.11" fill="none" stroke="none" pointer-events="all"/><path d="M 530 586.12 C 587.86 568.41 661.2 573.11 754.81 588.8 M 530 586.12 C 586.58 566.53 660.01 570.13 754.81 588.8" fill="none" stroke="#000000" stroke-linejoin="round" stroke-linecap="round" stroke-miterlimit="10" pointer-events="stroke" style="stroke: light-dark(rgb(0, 0, 0), rgb(255, 255, 255));"/><path d="M 741.89 592.86 C 748.59 591.57 749.35 589.35 755.9 589.02 M 741.89 592.86 C 745.94 593.19 751.35 592.15 755.9 589.02 M 755.9 589.02 C 751.13 584.81 745.23 581.59 744.42 580.11 M 755.9 589.02 C 751.09 586.85 747.58 582.06 744.42 580.11" fill="none" stroke="#000000" stroke-linejoin="round" stroke-linecap="round" stroke-miterlimit="10" pointer-events="all" style="stroke: light-dark(rgb(0, 0, 0), rgb(255, 255, 255));"/></g><g><g fill="#000000" font-family="Helvetica" text-anchor="middle" font-size="11px" style="fill: light-dark(rgb(0, 0, 0), rgb(255, 255, 255));"><text x="642.82" y="571.03">muestra</text></g></g></g><g data-cell-id="xggSwS1l_uX2BKRk23sH-46"><g><path d="M 530 670.8 Q 615 695 758.57 799.68" fill="none" stroke="none" pointer-events="stroke"/><path d="M 745.14 797.93 L 759.48 800.34 L 752.8 787.43" fill="none" stroke="none" pointer-events="all"/><path d="M 530 670.8 C 587.86 686.65 659.26 730.45 758.57 799.68 M 530 670.8 C 584.2 687.95 659.34 733.07 758.57 799.68" fill="none" stroke="#000000" stroke-linejoin="round" stroke-linecap="round" stroke-miterlimit="10" pointer-events="stroke" style="stroke: light-dark(rgb(0, 0, 0), rgb(255, 255, 255));"/><path d="M 745.14 797.93 C 750.27 797.42 755.24 797.56 759.48 800.34 M 745.14 797.93 C 749.23 797.52 755.16 800.29 759.48 800.34 M 759.48 800.34 C 757.33 799.67 758.57 795.07 752.8 787.43 M 759.48 800.34 C 758.29 796.5 754.99 793.24 752.8 787.43" fill="none" stroke="#000000" stroke-linejoin="round" stroke-linecap="round" stroke-miterlimit="10" pointer-events="all" style="stroke: light-dark(rgb(0, 0, 0), rgb(255, 255, 255));"/></g><g><g fill="#000000" font-family="Helvetica" text-anchor="middle" font-size="11px" style="fill: light-dark(rgb(0, 0, 0), rgb(255, 255, 255));"><text x="651.86" y="726.38">muestra</text></g></g></g><g data-cell-id="xggSwS1l_uX2BKRk23sH-47"><g><path d="M 530 817.07 Q 615 926 734.81 949.39" fill="none" stroke="none" pointer-events="stroke"/><path d="M 721.9 953.49 L 735.9 949.61 L 724.39 940.74" fill="none" stroke="none" pointer-events="all"/><path d="M 530 817.07 C 587.86 890.09 656.15 932.07 734.81 949.39 M 530 817.07 C 591.01 885.37 658.7 931.09 734.81 949.39" fill="none" stroke="#000000" stroke-linejoin="round" stroke-linecap="round" stroke-miterlimit="10" pointer-events="stroke" style="stroke: light-dark(rgb(0, 0, 0), rgb(255, 255, 255));"/><path d="M 721.9 953.49 C 725.25 954.87 728.4 953.22 735.9 949.61 M 721.9 953.49 C 725.71 951.4 729.11 951.21 735.9 949.61 M 735.9 949.61 C 731.44 946.81 729.52 946.69 724.39 940.74 M 735.9 949.61 C 732.25 947 729 944.94 724.39 940.74" fill="none" stroke="#000000" stroke-linejoin="round" stroke-linecap="round" stroke-miterlimit="10" pointer-events="all" style="stroke: light-dark(rgb(0, 0, 0), rgb(255, 255, 255));"/></g><g><g fill="#000000" font-family="Helvetica" text-anchor="middle" font-size="11px" style="fill: light-dark(rgb(0, 0, 0), rgb(255, 255, 255));"><text x="610.59" y="924.85">muestra</text></g></g></g><g data-cell-id="xggSwS1l_uX2BKRk23sH-48"><g><path d="M 484.85 820.92 Q 615 1060 731.81 1082.82" fill="none" stroke="none" pointer-events="stroke"/><path d="M 718.9 1086.92 L 732.9 1083.04 L 721.39 1074.16" fill="none" stroke="none" pointer-events="all"/><path d="M 484.85 820.92 C 572.81 981.38 651.97 1071.59 731.81 1082.82 M 484.85 820.92 C 573.58 979.85 655.77 1068.21 731.81 1082.82" fill="none" stroke="#000000" stroke-linejoin="round" stroke-linecap="round" stroke-miterlimit="10" pointer-events="stroke" style="stroke: light-dark(rgb(0, 0, 0), rgb(255, 255, 255));"/><path d="M 718.9 1086.92 C 726.39 1087.02 727.83 1085.66 732.9 1083.04 M 718.9 1086.92 C 722.54 1085.25 726.33 1083.64 732.9 1083.04 M 732.9 1083.04 C 727.62 1082.95 723.65 1074.77 721.39 1074.16 M 732.9 1083.04 C 731.29 1080.44 726.72 1078.27 721.39 1074.16" fill="none" stroke="#000000" stroke-linejoin="round" stroke-linecap="round" stroke-miterlimit="10" pointer-events="all" style="stroke: light-dark(rgb(0, 0, 0), rgb(255, 255, 255));"/></g><g><g fill="#000000" font-family="Helvetica" text-anchor="middle" font-size="11px" style="fill: light-dark(rgb(0, 0, 0), rgb(255, 255, 255));"><text x="579.04" y="998.45">muestra</text></g></g></g><g data-cell-id="xggSwS1l_uX2BKRk23sH-49"><g><path d="M 420.88 854.46 Q 615 531 745 478.04" fill="none" stroke="none" pointer-events="stroke"/><path d="M 412.14 869.04 L 413.59 850.09 L 428.17 858.84 Z" fill="none" stroke="none" pointer-events="all"/><path d="M 420.88 854.46 C 551.49 640.58 661.17 515.05 745 478.04 M 420.88 854.46 C 549.87 642.23 658.24 517.26 745 478.04" fill="none" stroke="#000000" stroke-linejoin="round" stroke-linecap="round" stroke-miterlimit="10" pointer-events="stroke" style="stroke: light-dark(rgb(0, 0, 0), rgb(255, 255, 255));"/><path d="M 412.14 869.04 C 414.07 862.42 415.75 856.45 413.59 850.09 M 412.14 869.04 C 414.44 861.21 413.41 855.71 413.59 850.09 M 413.59 850.09 C 415.56 852.87 424.65 853.84 428.17 858.84 M 413.59 850.09 C 417.53 851.76 420.91 853.79 428.17 858.84 M 428.17 858.84 C 420.97 865.34 420.21 869.2 412.14 869.04 M 428.17 858.84 C 423.72 863.15 419.68 863.28 412.14 869.04" fill="none" stroke="#000000" stroke-linejoin="round" stroke-linecap="round" stroke-miterlimit="10" pointer-events="all" style="stroke: light-dark(rgb(0, 0, 0), rgb(255, 255, 255));"/></g></g><g data-cell-id="xggSwS1l_uX2BKRk23sH-50"><g><path d="M 440.06 856.62 Q 615 665 757 609.76" fill="none" stroke="none" pointer-events="stroke"/><path d="M 428.59 869.17 L 433.78 850.89 L 446.33 862.35 Z" fill="none" stroke="none" pointer-events="all"/><path d="M 440.06 856.62 C 557.88 729.6 659.01 646.01 757 609.76 M 440.06 856.62 C 559.04 725.31 665.9 649.76 757 609.76" fill="none" stroke="#000000" stroke-linejoin="round" stroke-linecap="round" stroke-miterlimit="10" pointer-events="stroke" style="stroke: light-dark(rgb(0, 0, 0), rgb(255, 255, 255));"/><path d="M 428.59 869.17 C 429.68 865.17 429 860.14 433.78 850.89 M 428.59 869.17 C 428.68 863.12 434.06 855.89 433.78 850.89 M 433.78 850.89 C 434.33 854.04 440.59 860.13 446.33 862.35 M 433.78 850.89 C 436.22 854.9 442.76 856.85 446.33 862.35 M 446.33 862.35 C 444.18 861.32 435.08 865.47 428.59 869.17 M 446.33 862.35 C 438.47 864.19 433.2 867.03 428.59 869.17" fill="none" stroke="#000000" stroke-linejoin="round" stroke-linecap="round" stroke-miterlimit="10" pointer-events="all" style="stroke: light-dark(rgb(0, 0, 0), rgb(255, 255, 255));"/></g></g><g data-cell-id="xggSwS1l_uX2BKRk23sH-51"><g><path d="M 471.09 902.64 Q 615 895 758 839.76" fill="none" stroke="none" pointer-events="stroke"/><path d="M 454.12 903.54 L 470.64 894.15 L 471.54 911.13 Z" fill="none" stroke="none" pointer-events="all"/><path d="M 471.09 902.64 C 568.23 898.95 664.15 873.72 758 839.76 M 471.09 902.64 C 567 897.84 664.31 873.87 758 839.76" fill="none" stroke="#000000" stroke-linejoin="round" stroke-linecap="round" stroke-miterlimit="10" pointer-events="stroke" style="stroke: light-dark(rgb(0, 0, 0), rgb(255, 255, 255));"/><path d="M 454.12 903.54 C 456.78 900.29 465.2 898.58 470.64 894.15 M 454.12 903.54 C 458.53 902.63 461.38 898.4 470.64 894.15 M 470.64 894.15 C 474.15 896.58 468.14 902.7 471.54 911.13 M 470.64 894.15 C 471.68 899.23 472.81 902.05 471.54 911.13 M 471.54 911.13 C 468.98 907.99 464.41 903.07 454.12 903.54 M 471.54 911.13 C 465.41 907.87 457.69 903.15 454.12 903.54" fill="none" stroke="#000000" stroke-linejoin="round" stroke-linecap="round" stroke-miterlimit="10" pointer-events="all" style="stroke: light-dark(rgb(0, 0, 0), rgb(255, 255, 255));"/></g></g><g data-cell-id="xggSwS1l_uX2BKRk23sH-52"><g><path d="M 468.66 943.91 Q 615 1029 737 977.75" fill="none" stroke="none" pointer-events="stroke"/><path d="M 453.97 935.36 L 472.94 936.56 L 464.39 951.26 Z" fill="none" stroke="none" pointer-events="all"/><path d="M 468.66 943.91 C 567.42 1002.72 653.96 1014.76 737 977.75 M 468.66 943.91 C 563.81 1004.8 655.38 1012.51 737 977.75" fill="none" stroke="#000000" stroke-linejoin="round" stroke-linecap="round" stroke-miterlimit="10" pointer-events="stroke" style="stroke: light-dark(rgb(0, 0, 0), rgb(255, 255, 255));"/><path d="M 453.97 935.36 C 462.95 933.92 469.94 936.08 472.94 936.56 M 453.97 935.36 C 458.86 937.29 466.65 934.21 472.94 936.56 M 472.94 936.56 C 472.06 942.3 467.38 945.89 464.39 951.26 M 472.94 936.56 C 470.32 940.23 467.18 945.08 464.39 951.26 M 464.39 951.26 C 463.07 948.63 457.03 944.83 453.97 935.36 M 464.39 951.26 C 461.52 947.63 460.18 943.82 453.97 935.36" fill="none" stroke="#000000" stroke-linejoin="round" stroke-linecap="round" stroke-miterlimit="10" pointer-events="all" style="stroke: light-dark(rgb(0, 0, 0), rgb(255, 255, 255));"/></g></g><g data-cell-id="xggSwS1l_uX2BKRk23sH-53"><g><path d="M 442.46 963.87 Q 615 1169 734 1114.03" fill="none" stroke="none" pointer-events="stroke"/><path d="M 431.52 950.86 L 448.97 958.39 L 435.96 969.34 Z" fill="none" stroke="none" pointer-events="all"/><path d="M 442.46 963.87 C 558.68 1103.39 657.77 1151.24 734 1114.03 M 442.46 963.87 C 561.89 1099.45 652.46 1154.58 734 1114.03" fill="none" stroke="#000000" stroke-linejoin="round" stroke-linecap="round" stroke-miterlimit="10" pointer-events="stroke" style="stroke: light-dark(rgb(0, 0, 0), rgb(255, 255, 255));"/><path d="M 431.52 950.86 C 437.92 956.71 442.17 953.73 448.97 958.39 M 431.52 950.86 C 439.53 951.71 443.49 957.27 448.97 958.39 M 448.97 958.39 C 448.22 958.12 442.07 963.02 435.96 969.34 M 448.97 958.39 C 447.67 960.58 441.85 963.85 435.96 969.34 M 435.96 969.34 C 435.15 968.99 434.49 960.52 431.52 950.86 M 435.96 969.34 C 436.26 964.67 434.31 957.38 431.52 950.86" fill="none" stroke="#000000" stroke-linejoin="round" stroke-linecap="round" stroke-miterlimit="10" pointer-events="all" style="stroke: light-dark(rgb(0, 0, 0), rgb(255, 255, 255));"/></g></g><g data-cell-id="xggSwS1l_uX2BKRk23sH-54"><g><path d="M 451.74 820.92 Q 615 1257 741.78 1243.24" fill="none" stroke="none" pointer-events="stroke"/><path d="M 730.67 1250.99 L 742.89 1243.12 L 729.26 1238.06" fill="none" stroke="none" pointer-events="all"/><path d="M 451.74 820.92 C 561.78 1115.08 657.18 1250.69 741.78 1243.24 M 451.74 820.92 C 562.6 1114.33 653.13 1250.43 741.78 1243.24" fill="none" stroke="#000000" stroke-linejoin="round" stroke-linecap="round" stroke-miterlimit="10" stroke-dasharray="3 3" pointer-events="stroke" style="stroke: light-dark(rgb(0, 0, 0), rgb(255, 255, 255));"/><path d="M 730.67 1250.99 C 733.31 1249.68 740.3 1243.19 742.89 1243.12 M 730.67 1250.99 C 733.48 1248.07 736.8 1246.95 742.89 1243.12 M 742.89 1243.12 C 740.49 1242.7 738.38 1241.72 729.26 1238.06 M 742.89 1243.12 C 740.32 1241.14 736.42 1240.47 729.26 1238.06" fill="none" stroke="#000000" stroke-linejoin="round" stroke-linecap="round" stroke-miterlimit="10" pointer-events="all" style="stroke: light-dark(rgb(0, 0, 0), rgb(255, 255, 255));"/></g><g><g fill="#000000" font-family="Helvetica" text-anchor="middle" font-size="11px" style="fill: light-dark(rgb(0, 0, 0), rgb(255, 255, 255));"><text x="556.22" y="1104.51">usa</text></g></g></g></g></g></g></svg>