<?xml version="1.0" encoding="UTF-8"?>
<!DOCTYPE svg PUBLIC "-//W3C//DTD SVG 1.1//EN" "http://www.w3.org/Graphics/SVG/1.1/DTD/svg11.dtd">
<svg xmlns="http://www.w3.org/2000/svg" style="background: transparent; background-color: transparent; color-scheme: light dark;" xmlns:xlink="http://www.w3.org/1999/xlink" version="1.1" width="546px" height="726px" viewBox="-0.5 -0.5 546 726"><defs><clipPath id="mx-clip-177-217-222-32-0"><rect x="177" y="217" width="222" height="32"/></clipPath><clipPath id="mx-clip-177-249-222-32-0"><rect x="177" y="249" width="222" height="32"/></clipPath><clipPath id="mx-clip-177-281-222-32-0"><rect x="177" y="281" width="222" height="32"/></clipPath><clipPath id="mx-clip-177-313-222-32-0"><rect x="177" y="313" width="222" height="32"/></clipPath><clipPath id="mx-clip-177-345-222-32-0"><rect x="177" y="345" width="222" height="32"/></clipPath><clipPath id="mx-clip-177-377-222-32-0"><rect x="177" y="377" width="222" height="32"/></clipPath><clipPath id="mx-clip-177-417-222-32-0"><rect x="177" y="417" width="222" height="32"/></clipPath><clipPath id="mx-clip-5-587-153-37-0"><rect x="5" y="587" width="153" height="37"/></clipPath><clipPath id="mx-clip-5-624-153-37-0"><rect x="5" y="624" width="153" height="37"/></clipPath><clipPath id="mx-clip-5-661-153-37-0"><rect x="5" y="661" width="153" height="37"/></clipPath><clipPath id="mx-clip-216-572-143-35-0"><rect x="216" y="572" width="143" height="35"/></clipPath><clipPath id="mx-clip-216-607-143-35-0"><rect x="216" y="607" width="143" height="35"/></clipPath><clipPath id="mx-clip-216-642-143-35-0"><rect x="216" y="642" width="143" height="35"/></clipPath><clipPath id="mx-clip-216-677-143-35-0"><rect x="216" y="677" width="143" height="35"/></clipPath><clipPath id="mx-clip-417-587-123-37-0"><rect x="417" y="587" width="123" height="37"/></clipPath><clipPath id="mx-clip-417-624-123-37-0"><rect x="417" y="624" width="123" height="37"/></clipPath><clipPath id="mx-clip-417-661-123-37-0"><rect x="417" y="661" width="123" height="37"/></clipPath></defs><g><g data-cell-id="0"><g data-cell-id="1"><g data-cell-id="t0DOTghozkdDFHHPN2nq-11"><g><path d="M 341 61 L 341 21 Q 341 1 321 1 L 253 1 Q 233 1 233 21 L 233 61" fill="none" stroke="#000000" stroke-width="3" stroke-miterlimit="10" pointer-events="all" style="stroke: light-dark(rgb(0, 0, 0), rgb(255, 255, 255));"/><path d="M 233 61 L 233 61 Q 233 81 253 81 L 321 81 Q 341 81 341 61 L 341 61" fill="none" stroke="#000000" stroke-width="3" stroke-miterlimit="10" pointer-events="none" style="stroke: light-dark(rgb(0, 0, 0), rgb(255, 255, 255));"/><path d="M 233 61 L 341 61" fill="none" stroke="#000000" stroke-width="3" stroke-miterlimit="10" pointer-events="none" style="stroke: light-dark(rgb(0, 0, 0), rgb(255, 255, 255));"/></g><g><g fill="#000000" font-family="Helvetica" font-weight="bold" text-anchor="middle" font-size="12px" style="fill: light-dark(rgb(0, 0, 0), rgb(255, 255, 255));"><text x="287" y="19">&lt;&lt;pydantic&gt;&gt;</text><text x="287" y="33">BaseModel</text></g></g><g data-cell-id="t0DOTghozkdDFHHPN2nq-12"><g><path d="M 233 71 L 341 71" fill="none" stroke="#000000" stroke-miterlimit="10" pointer-events="all" style="stroke: light-dark(rgb(0, 0, 0), rgb(255, 255, 255));"/></g></g></g><g data-cell-id="t0DOTghozkdDFHHPN2nq-13"><g><path d="M 403 212 L 403 194.4 Q 403 180 388.6 180 L 187.4 180 Q 173 180 173 194.4 L 173 212" fill="none" stroke="#000000" stroke-width="3" stroke-miterlimit="10" pointer-events="all" style="stroke: light-dark(rgb(0, 0, 0), rgb(255, 255, 255));"/><path d="M 173 212 L 173 429.6 Q 173 444 187.4 444 L 388.6 444 Q 403 444 403 429.6 L 403 212" fill="none" stroke="#000000" stroke-width="3" stroke-miterlimit="10" pointer-events="none" style="stroke: light-dark(rgb(0, 0, 0), rgb(255, 255, 255));"/><path d="M 173 212 L 403 212" fill="none" stroke="#000000" stroke-width="3" stroke-miterlimit="10" pointer-events="none" style="stroke: light-dark(rgb(0, 0, 0), rgb(255, 255, 255));"/></g><g><g fill="#000000" font-family="Helvetica" font-weight="bold" text-anchor="middle" font-size="12px" style="fill: light-dark(rgb(0, 0, 0), rgb(255, 255, 255));"><text x="288" y="198">Task</text></g></g><g data-cell-id="t0DOTghozkdDFHHPN2nq-14"><g><rect x="173" y="212" width="230" height="32" fill="none" stroke="none" pointer-events="all"/></g><g><g fill="#000000" font-family="Helvetica" font-size="12px" clip-path="url(#mx-clip-177-217-222-32-0)" style="fill: light-dark(rgb(0, 0, 0), rgb(255, 255, 255));"><text x="179" y="230">+Optional[int] id</text></g></g></g><g data-cell-id="t0DOTghozkdDFHHPN2nq-15"><g><rect x="173" y="244" width="230" height="32" fill="none" stroke="none" pointer-events="all"/></g><g><g fill="#000000" font-family="Helvetica" font-size="12px" clip-path="url(#mx-clip-177-249-222-32-0)" style="fill: light-dark(rgb(0, 0, 0), rgb(255, 255, 255));"><text x="179" y="262">+Status status = "pending"</text></g></g></g><g data-cell-id="t0DOTghozkdDFHHPN2nq-16"><g><rect x="173" y="276" width="230" height="32" fill="none" stroke="none" pointer-events="all"/></g><g><g fill="#000000" font-family="Helvetica" font-size="12px" clip-path="url(#mx-clip-177-281-222-32-0)" style="fill: light-dark(rgb(0, 0, 0), rgb(255, 255, 255));"><text x="179" y="294">+Tag tag = "personal"</text></g></g></g><g data-cell-id="t0DOTghozkdDFHHPN2nq-17"><g><rect x="173" y="308" width="230" height="32" fill="none" stroke="none" pointer-events="all"/></g><g><g fill="#000000" font-family="Helvetica" font-size="12px" clip-path="url(#mx-clip-177-313-222-32-0)" style="fill: light-dark(rgb(0, 0, 0), rgb(255, 255, 255));"><text x="179" y="326">+str content</text></g></g></g><g data-cell-id="t0DOTghozkdDFHHPN2nq-18"><g><rect x="173" y="340" width="230" height="32" fill="none" stroke="none" pointer-events="all"/></g><g><g fill="#000000" font-family="Helvetica" font-size="12px" clip-path="url(#mx-clip-177-345-222-32-0)" style="fill: light-dark(rgb(0, 0, 0), rgb(255, 255, 255));"><text x="179" y="358">+Priority priority = "baja"</text></g></g></g><g data-cell-id="t0DOTghozkdDFHHPN2nq-19"><g><rect x="173" y="372" width="230" height="32" fill="none" stroke="none" pointer-events="all"/></g><g><g fill="#000000" font-family="Helvetica" font-size="12px" clip-path="url(#mx-clip-177-377-222-32-0)" style="fill: light-dark(rgb(0, 0, 0), rgb(255, 255, 255));"><text x="179" y="390">+Optional[str] details</text></g></g></g><g data-cell-id="t0DOTghozkdDFHHPN2nq-20"><g><path d="M 173 408 L 403 408" fill="none" stroke="#000000" stroke-miterlimit="10" pointer-events="all" style="stroke: light-dark(rgb(0, 0, 0), rgb(255, 255, 255));"/></g></g><g data-cell-id="t0DOTghozkdDFHHPN2nq-21"><g><rect x="173" y="412" width="230" height="32" fill="none" stroke="none" pointer-events="all"/></g><g><g fill="#000000" font-family="Helvetica" font-size="12px" clip-path="url(#mx-clip-177-417-222-32-0)" style="fill: light-dark(rgb(0, 0, 0), rgb(255, 255, 255));"><text x="179" y="430">+__str__() : str</text></g></g></g></g><g data-cell-id="t0DOTghozkdDFHHPN2nq-22"><g><path d="M 162 582.2 L 162 551.84 Q 162 527 137.16 527 L 25.84 527 Q 1 527 1 551.84 L 1 582.2" fill="none" stroke="#000000" stroke-width="3" stroke-miterlimit="10" pointer-events="all" style="stroke: light-dark(rgb(0, 0, 0), rgb(255, 255, 255));"/><path d="M 1 582.2 L 1 686.36 Q 1 711.2 25.84 711.2 L 137.16 711.2 Q 162 711.2 162 686.36 L 162 582.2" fill="none" stroke="#000000" stroke-width="3" stroke-miterlimit="10" pointer-events="none" style="stroke: light-dark(rgb(0, 0, 0), rgb(255, 255, 255));"/><path d="M 1 582.2 L 162 582.2" fill="none" stroke="#000000" stroke-width="3" stroke-miterlimit="10" pointer-events="none" style="stroke: light-dark(rgb(0, 0, 0), rgb(255, 255, 255));"/></g><g><g fill="#000000" font-family="Helvetica" font-weight="bold" text-anchor="middle" font-size="12px" style="fill: light-dark(rgb(0, 0, 0), rgb(255, 255, 255));"><text x="81.5" y="545">&lt;&lt;enumeration&gt;&gt;</text><text x="81.5" y="559">Status</text></g></g><g data-cell-id="t0DOTghozkdDFHHPN2nq-23"><g><rect x="1" y="582.2" width="161" height="37" fill="none" stroke="none" pointer-events="all"/></g><g><g fill="#000000" font-family="Helvetica" font-size="12px" clip-path="url(#mx-clip-5-587-153-37-0)" style="fill: light-dark(rgb(0, 0, 0), rgb(255, 255, 255));"><text x="7" y="600.2">pending</text></g></g></g><g data-cell-id="t0DOTghozkdDFHHPN2nq-24"><g><rect x="1" y="619.2" width="161" height="37" fill="none" stroke="none" pointer-events="all"/></g><g><g fill="#000000" font-family="Helvetica" font-size="12px" clip-path="url(#mx-clip-5-624-153-37-0)" style="fill: light-dark(rgb(0, 0, 0), rgb(255, 255, 255));"><text x="7" y="637.2">in_progress</text></g></g></g><g data-cell-id="t0DOTghozkdDFHHPN2nq-25"><g><rect x="1" y="656.2" width="161" height="37" fill="none" stroke="none" pointer-events="all"/></g><g><g fill="#000000" font-family="Helvetica" font-size="12px" clip-path="url(#mx-clip-5-661-153-37-0)" style="fill: light-dark(rgb(0, 0, 0), rgb(255, 255, 255));"><text x="7" y="674.2">completed</text></g></g></g><g data-cell-id="t0DOTghozkdDFHHPN2nq-26"><g><path d="M 1 702.2 L 162 702.2" fill="none" stroke="#000000" stroke-miterlimit="10" pointer-events="all" style="stroke: light-dark(rgb(0, 0, 0), rgb(255, 255, 255));"/></g></g></g><g data-cell-id="t0DOTghozkdDFHHPN2nq-27"><g><path d="M 363 567 L 363 538.4 Q 363 515 339.6 515 L 235.4 515 Q 212 515 212 538.4 L 212 567" fill="none" stroke="#000000" stroke-width="3" stroke-miterlimit="10" pointer-events="all" style="stroke: light-dark(rgb(0, 0, 0), rgb(255, 255, 255));"/><path d="M 212 567 L 212 700.6 Q 212 724 235.4 724 L 339.6 724 Q 363 724 363 700.6 L 363 567" fill="none" stroke="#000000" stroke-width="3" stroke-miterlimit="10" pointer-events="none" style="stroke: light-dark(rgb(0, 0, 0), rgb(255, 255, 255));"/><path d="M 212 567 L 363 567" fill="none" stroke="#000000" stroke-width="3" stroke-miterlimit="10" pointer-events="none" style="stroke: light-dark(rgb(0, 0, 0), rgb(255, 255, 255));"/></g><g><g fill="#000000" font-family="Helvetica" font-weight="bold" text-anchor="middle" font-size="12px" style="fill: light-dark(rgb(0, 0, 0), rgb(255, 255, 255));"><text x="287.5" y="533">&lt;&lt;enumeration&gt;&gt;</text><text x="287.5" y="547">Tag</text></g></g><g data-cell-id="t0DOTghozkdDFHHPN2nq-28"><g><rect x="212" y="567" width="151" height="35" fill="none" stroke="none" pointer-events="all"/></g><g><g fill="#000000" font-family="Helvetica" font-size="12px" clip-path="url(#mx-clip-216-572-143-35-0)" style="fill: light-dark(rgb(0, 0, 0), rgb(255, 255, 255));"><text x="218" y="585">personal</text></g></g></g><g data-cell-id="t0DOTghozkdDFHHPN2nq-29"><g><rect x="212" y="602" width="151" height="35" fill="none" stroke="none" pointer-events="all"/></g><g><g fill="#000000" font-family="Helvetica" font-size="12px" clip-path="url(#mx-clip-216-607-143-35-0)" style="fill: light-dark(rgb(0, 0, 0), rgb(255, 255, 255));"><text x="218" y="620">proyecto</text></g></g></g><g data-cell-id="t0DOTghozkdDFHHPN2nq-30"><g><rect x="212" y="637" width="151" height="35" fill="none" stroke="none" pointer-events="all"/></g><g><g fill="#000000" font-family="Helvetica" font-size="12px" clip-path="url(#mx-clip-216-642-143-35-0)" style="fill: light-dark(rgb(0, 0, 0), rgb(255, 255, 255));"><text x="218" y="655">trabajo</text></g></g></g><g data-cell-id="t0DOTghozkdDFHHPN2nq-31"><g><rect x="212" y="672" width="151" height="35" fill="none" stroke="none" pointer-events="all"/></g><g><g fill="#000000" font-family="Helvetica" font-size="12px" clip-path="url(#mx-clip-216-677-143-35-0)" style="fill: light-dark(rgb(0, 0, 0), rgb(255, 255, 255));"><text x="218" y="690">calendario</text></g></g></g><g data-cell-id="t0DOTghozkdDFHHPN2nq-32"><g><path d="M 212 715.5 L 363 715.5" fill="none" stroke="#000000" stroke-miterlimit="10" pointer-events="all" style="stroke: light-dark(rgb(0, 0, 0), rgb(255, 255, 255));"/></g></g></g><g data-cell-id="t0DOTghozkdDFHHPN2nq-33"><g><path d="M 544 582.2 L 544 551.84 Q 544 527 519.16 527 L 437.84 527 Q 413 527 413 551.84 L 413 582.2" fill="none" stroke="#000000" stroke-width="2" stroke-miterlimit="10" pointer-events="all" style="stroke: light-dark(rgb(0, 0, 0), rgb(255, 255, 255));"/><path d="M 413 582.2 L 413 686.36 Q 413 711.2 437.84 711.2 L 519.16 711.2 Q 544 711.2 544 686.36 L 544 582.2" fill="none" stroke="#000000" stroke-width="2" stroke-miterlimit="10" pointer-events="none" style="stroke: light-dark(rgb(0, 0, 0), rgb(255, 255, 255));"/><path d="M 413 582.2 L 544 582.2" fill="none" stroke="#000000" stroke-width="2" stroke-miterlimit="10" pointer-events="none" style="stroke: light-dark(rgb(0, 0, 0), rgb(255, 255, 255));"/></g><g><g fill="#000000" font-family="Helvetica" font-weight="bold" text-anchor="middle" font-size="12px" style="fill: light-dark(rgb(0, 0, 0), rgb(255, 255, 255));"><text x="478.5" y="545">&lt;&lt;enumeration&gt;&gt;</text><text x="478.5" y="559">Priority</text></g></g><g data-cell-id="t0DOTghozkdDFHHPN2nq-34"><g><rect x="413" y="582.2" width="131" height="37" fill="none" stroke="none" pointer-events="all"/></g><g><g fill="#000000" font-family="Helvetica" font-size="12px" clip-path="url(#mx-clip-417-587-123-37-0)" style="fill: light-dark(rgb(0, 0, 0), rgb(255, 255, 255));"><text x="419" y="600.2">baja</text></g></g></g><g data-cell-id="t0DOTghozkdDFHHPN2nq-35"><g><rect x="413" y="619.2" width="131" height="37" fill="none" stroke="none" pointer-events="all"/></g><g><g fill="#000000" font-family="Helvetica" font-size="12px" clip-path="url(#mx-clip-417-624-123-37-0)" style="fill: light-dark(rgb(0, 0, 0), rgb(255, 255, 255));"><text x="419" y="637.2">media</text></g></g></g><g data-cell-id="t0DOTghozkdDFHHPN2nq-36"><g><rect x="413" y="656.2" width="131" height="37" fill="none" stroke="none" pointer-events="all"/></g><g><g fill="#000000" font-family="Helvetica" font-size="12px" clip-path="url(#mx-clip-417-661-123-37-0)" style="fill: light-dark(rgb(0, 0, 0), rgb(255, 255, 255));"><text x="419" y="674.2">alta</text></g></g></g><g data-cell-id="t0DOTghozkdDFHHPN2nq-37"><g><path d="M 413 702.2 L 544 702.2" fill="none" stroke="#000000" stroke-miterlimit="10" pointer-events="all" style="stroke: light-dark(rgb(0, 0, 0), rgb(255, 255, 255));"/></g></g></g><g data-cell-id="t0DOTghozkdDFHHPN2nq-38"><g><path d="M 288.07 99.12 Q 288.07 99.12 288 180" fill="none" stroke="none" pointer-events="stroke"/><path d="M 288.08 82.12 L 296.57 99.12 L 279.57 99.11 Z" fill="none" stroke="none" pointer-events="all"/><path d="M 288.07 99.12 C 290.54 98.38 287.95 127.09 288 180 M 288.07 99.12 C 292.14 96.66 288.04 121.84 288 180" fill="none" stroke="#000000" stroke-linejoin="round" stroke-linecap="round" stroke-miterlimit="10" pointer-events="stroke" style="stroke: light-dark(rgb(0, 0, 0), rgb(255, 255, 255));"/><path d="M 288.08 82.12 C 292.05 91.64 292.13 94.42 296.57 99.12 M 288.08 82.12 C 289.85 85.03 291.24 88.06 296.57 99.12 M 296.57 99.12 C 290.33 96.2 286.3 99.54 279.57 99.11 M 296.57 99.12 C 293.81 97.82 289 99.23 279.57 99.11 M 279.57 99.11 C 279.15 94.94 283.71 90.63 288.08 82.12 M 279.57 99.11 C 282.22 95.06 284.97 87.93 288.08 82.12" fill="none" stroke="#000000" stroke-linejoin="round" stroke-linecap="round" stroke-miterlimit="10" pointer-events="all" style="stroke: light-dark(rgb(0, 0, 0), rgb(255, 255, 255));"/></g><g><g fill="#000000" font-family="Helvetica" text-anchor="end" font-size="13px" style="fill: light-dark(rgb(0, 0, 0), rgb(255, 255, 255));"><text x="286.04" y="136.5">hereda</text></g></g></g><g data-cell-id="t0DOTghozkdDFHHPN2nq-39"><g><path d="M 173 404.4 Q 81 480 81.48 524.76" fill="none" stroke="none" pointer-events="stroke"/><path d="M 74.85 512.95 L 81.49 525.88 L 87.85 512.81" fill="none" stroke="none" pointer-events="all"/><path d="M 173 404.4 C 114.14 454.74 77.87 493.65 81.48 524.76 M 173 404.4 C 113.35 456.2 79.22 494 81.48 524.76" fill="none" stroke="#000000" stroke-linejoin="round" stroke-linecap="round" stroke-miterlimit="10" pointer-events="stroke" style="stroke: light-dark(rgb(0, 0, 0), rgb(255, 255, 255));"/><path d="M 74.85 512.95 C 76.33 518.8 80.54 521.19 81.49 525.88 M 74.85 512.95 C 75.58 516.58 79.44 521.59 81.49 525.88 M 81.49 525.88 C 83.61 521.48 86.35 517.18 87.85 512.81 M 81.49 525.88 C 83.41 522.28 86.05 515.25 87.85 512.81" fill="none" stroke="#000000" stroke-linejoin="round" stroke-linecap="round" stroke-miterlimit="10" pointer-events="all" style="stroke: light-dark(rgb(0, 0, 0), rgb(255, 255, 255));"/></g><g><g fill="#000000" font-family="Helvetica" text-anchor="end" font-size="11px" style="fill: light-dark(rgb(0, 0, 0), rgb(255, 255, 255));"><text x="106.87" y="461.6">usa</text></g></g></g><g data-cell-id="t0DOTghozkdDFHHPN2nq-40"><g><path d="M 288 444 Q 288 444 287.52 512.76" fill="none" stroke="none" pointer-events="stroke"/><path d="M 281.1 500.84 L 287.51 513.88 L 294.1 500.93" fill="none" stroke="none" pointer-events="all"/><path d="M 288 444 C 290.48 442.91 286.39 463.37 287.52 512.76 M 288 444 C 292.46 447.63 289.56 465.25 287.52 512.76" fill="none" stroke="#000000" stroke-linejoin="round" stroke-linecap="round" stroke-miterlimit="10" pointer-events="stroke" style="stroke: light-dark(rgb(0, 0, 0), rgb(255, 255, 255));"/><path d="M 281.1 500.84 C 280.77 508.42 287.96 511.41 287.51 513.88 M 281.1 500.84 C 281.85 505.14 283.6 508.22 287.51 513.88 M 287.51 513.88 C 289.3 509.37 290.41 503.53 294.1 500.93 M 287.51 513.88 C 290.09 510.36 291.49 506.96 294.1 500.93" fill="none" stroke="#000000" stroke-linejoin="round" stroke-linecap="round" stroke-miterlimit="10" pointer-events="all" style="stroke: light-dark(rgb(0, 0, 0), rgb(255, 255, 255));"/></g><g><g fill="#000000" font-family="Helvetica" text-anchor="end" font-size="13px" style="fill: light-dark(rgb(0, 0, 0), rgb(255, 255, 255));"><text x="285.75" y="485.5">usa</text></g></g></g><g data-cell-id="t0DOTghozkdDFHHPN2nq-41"><g><path d="M 403 412.32 Q 479 480 478.52 524.76" fill="none" stroke="none" pointer-events="stroke"/><path d="M 472.15 512.81 L 478.51 525.88 L 485.15 512.95" fill="none" stroke="none" pointer-events="all"/><path d="M 403 412.32 C 456.14 457.03 482.2 497.08 478.52 524.76 M 403 412.32 C 455.74 455.73 478.64 496.57 478.52 524.76" fill="none" stroke="#000000" stroke-linejoin="round" stroke-linecap="round" stroke-miterlimit="10" pointer-events="stroke" style="stroke: light-dark(rgb(0, 0, 0), rgb(255, 255, 255));"/><path d="M 472.15 512.81 C 476 518.75 475.65 522.04 478.51 525.88 M 472.15 512.81 C 475.12 518.55 476.7 521.44 478.51 525.88 M 478.51 525.88 C 478.36 520.93 482.54 521.1 485.15 512.95 M 478.51 525.88 C 479.77 522.54 482.32 519.15 485.15 512.95" fill="none" stroke="#000000" stroke-linejoin="round" stroke-linecap="round" stroke-miterlimit="10" pointer-events="all" style="stroke: light-dark(rgb(0, 0, 0), rgb(255, 255, 255));"/></g><g><g fill="#000000" font-family="Helvetica" font-size="13px" style="fill: light-dark(rgb(0, 0, 0), rgb(255, 255, 255));"><text x="460.26" y="467.03">usa</text></g></g></g></g></g></g></svg>